<?xml version="1.0" encoding="UTF-8" standalone="no"?>
<!DOCTYPE svg PUBLIC "-//W3C//DTD SVG 1.1//EN"
 "http://www.w3.org/Graphics/SVG/1.1/DTD/svg11.dtd">
<!-- Generated by graphviz version 2.50.0 (0)
 -->
<!-- Title: snakemake_dag Pages: 1 -->
<svg width="5528pt" height="337pt"
 viewBox="0.00 0.00 5527.82 337.00" xmlns="http://www.w3.org/2000/svg" xmlns:xlink="http://www.w3.org/1999/xlink">
<g id="graph0" class="graph" transform="scale(1 1) rotate(0) translate(4 333)">
<title>snakemake_dag</title>
<polygon fill="white" stroke="transparent" points="-4,4 -4,-333 5523.82,-333 5523.82,4 -4,4"/>
<!-- 0 -->
<g id="node1" class="node">
<title>0</title>
<path fill="none" stroke="#56d8a9" stroke-width="2" d="M2475.82,-36C2475.82,-36 2445.82,-36 2445.82,-36 2439.82,-36 2433.82,-30 2433.82,-24 2433.82,-24 2433.82,-12 2433.82,-12 2433.82,-6 2439.82,0 2445.82,0 2445.82,0 2475.82,0 2475.82,0 2481.82,0 2487.82,-6 2487.82,-12 2487.82,-12 2487.82,-24 2487.82,-24 2487.82,-30 2481.82,-36 2475.82,-36"/>
<text text-anchor="middle" x="2460.82" y="-15.5" font-family="sans" font-size="10.00">all</text>
</g>
<!-- 1 -->
<g id="node2" class="node">
<title>1</title>
<path fill="none" stroke="#d88556" stroke-width="2" d="M115.32,-257C115.32,-257 46.32,-257 46.32,-257 40.32,-257 34.32,-251 34.32,-245 34.32,-245 34.32,-233 34.32,-233 34.32,-227 40.32,-221 46.32,-221 46.32,-221 115.32,-221 115.32,-221 121.32,-221 127.32,-227 127.32,-233 127.32,-233 127.32,-245 127.32,-245 127.32,-251 121.32,-257 115.32,-257"/>
<text text-anchor="middle" x="80.82" y="-242" font-family="sans" font-size="10.00">combine_posneg</text>
<text text-anchor="middle" x="80.82" y="-231" font-family="sans" font-size="10.00">geo: country</text>
</g>
<!-- 1&#45;&gt;0 -->
<g id="edge1" class="edge">
<title>1&#45;&gt;0</title>
<path fill="none" stroke="grey" stroke-width="2" d="M46.13,-220.83C32.51,-212.13 18.35,-200.15 10.82,-185 -12.77,-137.55 4.13,-100.47 48.82,-72 101.1,-38.69 2120.82,-21.65 2423.12,-19.29"/>
<polygon fill="grey" stroke="grey" stroke-width="2" points="2423.56,-22.78 2433.53,-19.21 2423.51,-15.78 2423.56,-22.78"/>
</g>
<!-- 43 -->
<g id="node44" class="node">
<title>43</title>
<path fill="none" stroke="#56d0d8" stroke-width="2" d="M69.82,-185C69.82,-185 31.82,-185 31.82,-185 25.82,-185 19.82,-179 19.82,-173 19.82,-173 19.82,-161 19.82,-161 19.82,-155 25.82,-149 31.82,-149 31.82,-149 69.82,-149 69.82,-149 75.82,-149 81.82,-155 81.82,-161 81.82,-161 81.82,-173 81.82,-173 81.82,-179 75.82,-185 69.82,-185"/>
<text text-anchor="middle" x="50.82" y="-164.5" font-family="sans" font-size="10.00">total_tests</text>
</g>
<!-- 1&#45;&gt;43 -->
<g id="edge99" class="edge">
<title>1&#45;&gt;43</title>
<path fill="none" stroke="grey" stroke-width="2" d="M73.4,-220.7C70.02,-212.81 65.95,-203.3 62.19,-194.55"/>
<polygon fill="grey" stroke="grey" stroke-width="2" points="65.3,-192.92 58.15,-185.1 58.87,-195.67 65.3,-192.92"/>
</g>
<!-- 46 -->
<g id="node47" class="node">
<title>46</title>
<path fill="none" stroke="#56d87b" stroke-width="2" d="M124.82,-110.5C124.82,-110.5 94.82,-110.5 94.82,-110.5 88.82,-110.5 82.82,-104.5 82.82,-98.5 82.82,-98.5 82.82,-86.5 82.82,-86.5 82.82,-80.5 88.82,-74.5 94.82,-74.5 94.82,-74.5 124.82,-74.5 124.82,-74.5 130.82,-74.5 136.82,-80.5 136.82,-86.5 136.82,-86.5 136.82,-98.5 136.82,-98.5 136.82,-104.5 130.82,-110.5 124.82,-110.5"/>
<text text-anchor="middle" x="109.82" y="-90" font-family="sans" font-size="10.00">posrate</text>
</g>
<!-- 1&#45;&gt;46 -->
<g id="edge102" class="edge">
<title>1&#45;&gt;46</title>
<path fill="none" stroke="grey" stroke-width="2" d="M84.26,-220.86C89.23,-196.09 98.47,-150.05 104.37,-120.63"/>
<polygon fill="grey" stroke="grey" stroke-width="2" points="107.84,-121.11 106.38,-110.62 100.98,-119.74 107.84,-121.11"/>
</g>
<!-- 63 -->
<g id="node64" class="node">
<title>63</title>
<path fill="none" stroke="#c6d856" stroke-width="2" d="M205.32,-185C205.32,-185 150.32,-185 150.32,-185 144.32,-185 138.32,-179 138.32,-173 138.32,-173 138.32,-161 138.32,-161 138.32,-155 144.32,-149 150.32,-149 150.32,-149 205.32,-149 205.32,-149 211.32,-149 217.32,-155 217.32,-161 217.32,-161 217.32,-173 217.32,-173 217.32,-179 211.32,-185 205.32,-185"/>
<text text-anchor="middle" x="177.82" y="-164.5" font-family="sans" font-size="10.00">posneg_allpat</text>
</g>
<!-- 1&#45;&gt;63 -->
<g id="edge121" class="edge">
<title>1&#45;&gt;63</title>
<path fill="none" stroke="grey" stroke-width="2" d="M104.79,-220.7C117.13,-211.8 132.33,-200.82 145.67,-191.2"/>
<polygon fill="grey" stroke="grey" stroke-width="2" points="148.05,-193.79 154.11,-185.1 143.96,-188.12 148.05,-193.79"/>
</g>
<!-- 2 -->
<g id="node3" class="node">
<title>2</title>
<path fill="none" stroke="#d88556" stroke-width="2" d="M339.32,-257C339.32,-257 270.32,-257 270.32,-257 264.32,-257 258.32,-251 258.32,-245 258.32,-245 258.32,-233 258.32,-233 258.32,-227 264.32,-221 270.32,-221 270.32,-221 339.32,-221 339.32,-221 345.32,-221 351.32,-227 351.32,-233 351.32,-233 351.32,-245 351.32,-245 351.32,-251 345.32,-257 339.32,-257"/>
<text text-anchor="middle" x="304.82" y="-242" font-family="sans" font-size="10.00">combine_posneg</text>
<text text-anchor="middle" x="304.82" y="-231" font-family="sans" font-size="10.00">geo: region</text>
</g>
<!-- 2&#45;&gt;0 -->
<g id="edge2" class="edge">
<title>2&#45;&gt;0</title>
<path fill="none" stroke="grey" stroke-width="2" d="M287.08,-220.6C278.58,-211 269.28,-198.34 264.82,-185 248.41,-136.04 250.06,-102.38 291.82,-72 336.71,-39.33 2139.76,-21.87 2423.42,-19.33"/>
<polygon fill="grey" stroke="grey" stroke-width="2" points="2423.64,-22.82 2433.61,-19.24 2423.58,-15.83 2423.64,-22.82"/>
</g>
<!-- 44 -->
<g id="node45" class="node">
<title>44</title>
<path fill="none" stroke="#56d0d8" stroke-width="2" d="M323.82,-185C323.82,-185 285.82,-185 285.82,-185 279.82,-185 273.82,-179 273.82,-173 273.82,-173 273.82,-161 273.82,-161 273.82,-155 279.82,-149 285.82,-149 285.82,-149 323.82,-149 323.82,-149 329.82,-149 335.82,-155 335.82,-161 335.82,-161 335.82,-173 335.82,-173 335.82,-179 329.82,-185 323.82,-185"/>
<text text-anchor="middle" x="304.82" y="-164.5" font-family="sans" font-size="10.00">total_tests</text>
</g>
<!-- 2&#45;&gt;44 -->
<g id="edge100" class="edge">
<title>2&#45;&gt;44</title>
<path fill="none" stroke="grey" stroke-width="2" d="M304.82,-220.7C304.82,-212.98 304.82,-203.71 304.82,-195.11"/>
<polygon fill="grey" stroke="grey" stroke-width="2" points="308.32,-195.1 304.82,-185.1 301.32,-195.1 308.32,-195.1"/>
</g>
<!-- 47 -->
<g id="node48" class="node">
<title>47</title>
<path fill="none" stroke="#56d87b" stroke-width="2" d="M361.82,-110.5C361.82,-110.5 331.82,-110.5 331.82,-110.5 325.82,-110.5 319.82,-104.5 319.82,-98.5 319.82,-98.5 319.82,-86.5 319.82,-86.5 319.82,-80.5 325.82,-74.5 331.82,-74.5 331.82,-74.5 361.82,-74.5 361.82,-74.5 367.82,-74.5 373.82,-80.5 373.82,-86.5 373.82,-86.5 373.82,-98.5 373.82,-98.5 373.82,-104.5 367.82,-110.5 361.82,-110.5"/>
<text text-anchor="middle" x="346.82" y="-90" font-family="sans" font-size="10.00">posrate</text>
</g>
<!-- 2&#45;&gt;47 -->
<g id="edge104" class="edge">
<title>2&#45;&gt;47</title>
<path fill="none" stroke="grey" stroke-width="2" d="M322.43,-220.56C330.9,-210.95 340.2,-198.29 344.82,-185 352,-164.3 352.03,-139.34 350.52,-120.73"/>
<polygon fill="grey" stroke="grey" stroke-width="2" points="353.98,-120.18 349.5,-110.58 347.02,-120.88 353.98,-120.18"/>
</g>
<!-- 3 -->
<g id="node4" class="node">
<title>3</title>
<path fill="none" stroke="#d88556" stroke-width="2" d="M495.32,-257C495.32,-257 426.32,-257 426.32,-257 420.32,-257 414.32,-251 414.32,-245 414.32,-245 414.32,-233 414.32,-233 414.32,-227 420.32,-221 426.32,-221 426.32,-221 495.32,-221 495.32,-221 501.32,-221 507.32,-227 507.32,-233 507.32,-233 507.32,-245 507.32,-245 507.32,-251 501.32,-257 495.32,-257"/>
<text text-anchor="middle" x="460.82" y="-242" font-family="sans" font-size="10.00">combine_posneg</text>
<text text-anchor="middle" x="460.82" y="-231" font-family="sans" font-size="10.00">geo: states</text>
</g>
<!-- 3&#45;&gt;0 -->
<g id="edge3" class="edge">
<title>3&#45;&gt;0</title>
<path fill="none" stroke="grey" stroke-width="2" d="M443.08,-220.6C434.58,-211 425.28,-198.34 420.82,-185 404.56,-136.48 402.38,-103.35 442.82,-72 483.52,-40.45 2151.54,-22.15 2423.51,-19.37"/>
<polygon fill="grey" stroke="grey" stroke-width="2" points="2423.69,-22.87 2433.65,-19.27 2423.62,-15.87 2423.69,-22.87"/>
</g>
<!-- 45 -->
<g id="node46" class="node">
<title>45</title>
<path fill="none" stroke="#56d0d8" stroke-width="2" d="M479.82,-185C479.82,-185 441.82,-185 441.82,-185 435.82,-185 429.82,-179 429.82,-173 429.82,-173 429.82,-161 429.82,-161 429.82,-155 435.82,-149 441.82,-149 441.82,-149 479.82,-149 479.82,-149 485.82,-149 491.82,-155 491.82,-161 491.82,-161 491.82,-173 491.82,-173 491.82,-179 485.82,-185 479.82,-185"/>
<text text-anchor="middle" x="460.82" y="-164.5" font-family="sans" font-size="10.00">total_tests</text>
</g>
<!-- 3&#45;&gt;45 -->
<g id="edge101" class="edge">
<title>3&#45;&gt;45</title>
<path fill="none" stroke="grey" stroke-width="2" d="M460.82,-220.7C460.82,-212.98 460.82,-203.71 460.82,-195.11"/>
<polygon fill="grey" stroke="grey" stroke-width="2" points="464.32,-195.1 460.82,-185.1 457.32,-195.1 464.32,-195.1"/>
</g>
<!-- 48 -->
<g id="node49" class="node">
<title>48</title>
<path fill="none" stroke="#56d87b" stroke-width="2" d="M509.82,-110.5C509.82,-110.5 479.82,-110.5 479.82,-110.5 473.82,-110.5 467.82,-104.5 467.82,-98.5 467.82,-98.5 467.82,-86.5 467.82,-86.5 467.82,-80.5 473.82,-74.5 479.82,-74.5 479.82,-74.5 509.82,-74.5 509.82,-74.5 515.82,-74.5 521.82,-80.5 521.82,-86.5 521.82,-86.5 521.82,-98.5 521.82,-98.5 521.82,-104.5 515.82,-110.5 509.82,-110.5"/>
<text text-anchor="middle" x="494.82" y="-90" font-family="sans" font-size="10.00">posrate</text>
</g>
<!-- 3&#45;&gt;48 -->
<g id="edge106" class="edge">
<title>3&#45;&gt;48</title>
<path fill="none" stroke="grey" stroke-width="2" d="M478.55,-220.6C487.05,-211 496.35,-198.34 500.82,-185 507.82,-164.08 505.49,-139 501.87,-120.39"/>
<polygon fill="grey" stroke="grey" stroke-width="2" points="505.27,-119.55 499.71,-110.52 498.43,-121.04 505.27,-119.55"/>
</g>
<!-- 4 -->
<g id="node5" class="node">
<title>4</title>
<path fill="none" stroke="#56d863" stroke-width="2" d="M607.82,-113C607.82,-113 551.82,-113 551.82,-113 545.82,-113 539.82,-107 539.82,-101 539.82,-101 539.82,-84 539.82,-84 539.82,-78 545.82,-72 551.82,-72 551.82,-72 607.82,-72 607.82,-72 613.82,-72 619.82,-78 619.82,-84 619.82,-84 619.82,-101 619.82,-101 619.82,-107 613.82,-113 607.82,-113"/>
<text text-anchor="middle" x="579.82" y="-101" font-family="sans" font-size="10.00">test_results</text>
<text text-anchor="middle" x="579.82" y="-90" font-family="sans" font-size="10.00">geo: country</text>
<text text-anchor="middle" x="579.82" y="-79" font-family="sans" font-size="10.00">sample: FLUA</text>
</g>
<!-- 4&#45;&gt;0 -->
<g id="edge4" class="edge">
<title>4&#45;&gt;0</title>
<path fill="none" stroke="grey" stroke-width="2" d="M619.85,-74.28C622.85,-73.39 625.86,-72.61 628.82,-72 810.35,-34.48 2179.45,-21.35 2423.62,-19.3"/>
<polygon fill="grey" stroke="grey" stroke-width="2" points="2423.78,-22.8 2433.75,-19.21 2423.72,-15.8 2423.78,-22.8"/>
</g>
<!-- 5 -->
<g id="node6" class="node">
<title>5</title>
<path fill="none" stroke="#d85656" stroke-width="2" d="M2946.82,-185C2946.82,-185 2916.82,-185 2916.82,-185 2910.82,-185 2904.82,-179 2904.82,-173 2904.82,-173 2904.82,-161 2904.82,-161 2904.82,-155 2910.82,-149 2916.82,-149 2916.82,-149 2946.82,-149 2946.82,-149 2952.82,-149 2958.82,-155 2958.82,-161 2958.82,-161 2958.82,-173 2958.82,-173 2958.82,-179 2952.82,-185 2946.82,-185"/>
<text text-anchor="middle" x="2931.82" y="-164.5" font-family="sans" font-size="10.00">geocols</text>
</g>
<!-- 5&#45;&gt;4 -->
<g id="edge61" class="edge">
<title>5&#45;&gt;4</title>
<path fill="none" stroke="grey" stroke-width="2" d="M2904.66,-165.96C2664.63,-165.52 908.03,-160.73 629.83,-112.62"/>
<polygon fill="grey" stroke="grey" stroke-width="2" points="630.32,-109.15 619.84,-110.74 629.02,-116.03 630.32,-109.15"/>
</g>
<!-- 8 -->
<g id="node9" class="node">
<title>8</title>
<path fill="none" stroke="#56d863" stroke-width="2" d="M705.82,-113C705.82,-113 649.82,-113 649.82,-113 643.82,-113 637.82,-107 637.82,-101 637.82,-101 637.82,-84 637.82,-84 637.82,-78 643.82,-72 649.82,-72 649.82,-72 705.82,-72 705.82,-72 711.82,-72 717.82,-78 717.82,-84 717.82,-84 717.82,-101 717.82,-101 717.82,-107 711.82,-113 705.82,-113"/>
<text text-anchor="middle" x="677.82" y="-101" font-family="sans" font-size="10.00">test_results</text>
<text text-anchor="middle" x="677.82" y="-90" font-family="sans" font-size="10.00">geo: region</text>
<text text-anchor="middle" x="677.82" y="-79" font-family="sans" font-size="10.00">sample: FLUA</text>
</g>
<!-- 5&#45;&gt;8 -->
<g id="edge64" class="edge">
<title>5&#45;&gt;8</title>
<path fill="none" stroke="grey" stroke-width="2" d="M2904.71,-165.93C2670.76,-165.24 995.31,-158.8 727.8,-112.61"/>
<polygon fill="grey" stroke="grey" stroke-width="2" points="728.32,-109.14 717.84,-110.74 727.02,-116.02 728.32,-109.14"/>
</g>
<!-- 9 -->
<g id="node10" class="node">
<title>9</title>
<path fill="none" stroke="#56d863" stroke-width="2" d="M803.82,-113C803.82,-113 747.82,-113 747.82,-113 741.82,-113 735.82,-107 735.82,-101 735.82,-101 735.82,-84 735.82,-84 735.82,-78 741.82,-72 747.82,-72 747.82,-72 803.82,-72 803.82,-72 809.82,-72 815.82,-78 815.82,-84 815.82,-84 815.82,-101 815.82,-101 815.82,-107 809.82,-113 803.82,-113"/>
<text text-anchor="middle" x="775.82" y="-101" font-family="sans" font-size="10.00">test_results</text>
<text text-anchor="middle" x="775.82" y="-90" font-family="sans" font-size="10.00">geo: states</text>
<text text-anchor="middle" x="775.82" y="-79" font-family="sans" font-size="10.00">sample: FLUA</text>
</g>
<!-- 5&#45;&gt;9 -->
<g id="edge65" class="edge">
<title>5&#45;&gt;9</title>
<path fill="none" stroke="grey" stroke-width="2" d="M2904.47,-165.9C2675.66,-164.95 1082.32,-156.85 825.74,-112.59"/>
<polygon fill="grey" stroke="grey" stroke-width="2" points="826.32,-109.14 815.84,-110.73 825.02,-116.02 826.32,-109.14"/>
</g>
<!-- 10 -->
<g id="node11" class="node">
<title>10</title>
<path fill="none" stroke="#56d863" stroke-width="2" d="M901.82,-113C901.82,-113 845.82,-113 845.82,-113 839.82,-113 833.82,-107 833.82,-101 833.82,-101 833.82,-84 833.82,-84 833.82,-78 839.82,-72 845.82,-72 845.82,-72 901.82,-72 901.82,-72 907.82,-72 913.82,-78 913.82,-84 913.82,-84 913.82,-101 913.82,-101 913.82,-107 907.82,-113 901.82,-113"/>
<text text-anchor="middle" x="873.82" y="-101" font-family="sans" font-size="10.00">test_results</text>
<text text-anchor="middle" x="873.82" y="-90" font-family="sans" font-size="10.00">geo: country</text>
<text text-anchor="middle" x="873.82" y="-79" font-family="sans" font-size="10.00">sample: FLUB</text>
</g>
<!-- 5&#45;&gt;10 -->
<g id="edge66" class="edge">
<title>5&#45;&gt;10</title>
<path fill="none" stroke="grey" stroke-width="2" d="M2904.68,-165.86C2682.93,-164.65 1170.88,-154.95 924.01,-112.64"/>
<polygon fill="grey" stroke="grey" stroke-width="2" points="924.32,-109.13 913.85,-110.73 923.03,-116.01 924.32,-109.13"/>
</g>
<!-- 11 -->
<g id="node12" class="node">
<title>11</title>
<path fill="none" stroke="#56d863" stroke-width="2" d="M999.82,-113C999.82,-113 943.82,-113 943.82,-113 937.82,-113 931.82,-107 931.82,-101 931.82,-101 931.82,-84 931.82,-84 931.82,-78 937.82,-72 943.82,-72 943.82,-72 999.82,-72 999.82,-72 1005.82,-72 1011.82,-78 1011.82,-84 1011.82,-84 1011.82,-101 1011.82,-101 1011.82,-107 1005.82,-113 999.82,-113"/>
<text text-anchor="middle" x="971.82" y="-101" font-family="sans" font-size="10.00">test_results</text>
<text text-anchor="middle" x="971.82" y="-90" font-family="sans" font-size="10.00">geo: region</text>
<text text-anchor="middle" x="971.82" y="-79" font-family="sans" font-size="10.00">sample: FLUB</text>
</g>
<!-- 5&#45;&gt;11 -->
<g id="edge67" class="edge">
<title>5&#45;&gt;11</title>
<path fill="none" stroke="grey" stroke-width="2" d="M2904.64,-165.82C2689.03,-164.33 1257.6,-153.02 1021.86,-112.61"/>
<polygon fill="grey" stroke="grey" stroke-width="2" points="1022.32,-109.13 1011.85,-110.72 1021.03,-116.01 1022.32,-109.13"/>
</g>
<!-- 12 -->
<g id="node13" class="node">
<title>12</title>
<path fill="none" stroke="#56d863" stroke-width="2" d="M1097.82,-113C1097.82,-113 1041.82,-113 1041.82,-113 1035.82,-113 1029.82,-107 1029.82,-101 1029.82,-101 1029.82,-84 1029.82,-84 1029.82,-78 1035.82,-72 1041.82,-72 1041.82,-72 1097.82,-72 1097.82,-72 1103.82,-72 1109.82,-78 1109.82,-84 1109.82,-84 1109.82,-101 1109.82,-101 1109.82,-107 1103.82,-113 1097.82,-113"/>
<text text-anchor="middle" x="1069.82" y="-101" font-family="sans" font-size="10.00">test_results</text>
<text text-anchor="middle" x="1069.82" y="-90" font-family="sans" font-size="10.00">geo: states</text>
<text text-anchor="middle" x="1069.82" y="-79" font-family="sans" font-size="10.00">sample: FLUB</text>
</g>
<!-- 5&#45;&gt;12 -->
<g id="edge68" class="edge">
<title>5&#45;&gt;12</title>
<path fill="none" stroke="grey" stroke-width="2" d="M2904.7,-165.78C2695.76,-163.99 1344.23,-151.11 1119.68,-112.57"/>
<polygon fill="grey" stroke="grey" stroke-width="2" points="1120.32,-109.13 1109.85,-110.72 1119.03,-116.01 1120.32,-109.13"/>
</g>
<!-- 13 -->
<g id="node14" class="node">
<title>13</title>
<path fill="none" stroke="#56d863" stroke-width="2" d="M1191.32,-113C1191.32,-113 1140.32,-113 1140.32,-113 1134.32,-113 1128.32,-107 1128.32,-101 1128.32,-101 1128.32,-84 1128.32,-84 1128.32,-78 1134.32,-72 1140.32,-72 1140.32,-72 1191.32,-72 1191.32,-72 1197.32,-72 1203.32,-78 1203.32,-84 1203.32,-84 1203.32,-101 1203.32,-101 1203.32,-107 1197.32,-113 1191.32,-113"/>
<text text-anchor="middle" x="1165.82" y="-101" font-family="sans" font-size="10.00">test_results</text>
<text text-anchor="middle" x="1165.82" y="-90" font-family="sans" font-size="10.00">geo: country</text>
<text text-anchor="middle" x="1165.82" y="-79" font-family="sans" font-size="10.00">sample: VSR</text>
</g>
<!-- 5&#45;&gt;13 -->
<g id="edge69" class="edge">
<title>5&#45;&gt;13</title>
<path fill="none" stroke="grey" stroke-width="2" d="M2904.79,-165.77C2702.49,-163.96 1427.26,-151.17 1213.27,-112.69"/>
<polygon fill="grey" stroke="grey" stroke-width="2" points="1213.84,-109.23 1203.35,-110.72 1212.48,-116.1 1213.84,-109.23"/>
</g>
<!-- 14 -->
<g id="node15" class="node">
<title>14</title>
<path fill="none" stroke="#56d863" stroke-width="2" d="M1284.32,-113C1284.32,-113 1233.32,-113 1233.32,-113 1227.32,-113 1221.32,-107 1221.32,-101 1221.32,-101 1221.32,-84 1221.32,-84 1221.32,-78 1227.32,-72 1233.32,-72 1233.32,-72 1284.32,-72 1284.32,-72 1290.32,-72 1296.32,-78 1296.32,-84 1296.32,-84 1296.32,-101 1296.32,-101 1296.32,-107 1290.32,-113 1284.32,-113"/>
<text text-anchor="middle" x="1258.82" y="-101" font-family="sans" font-size="10.00">test_results</text>
<text text-anchor="middle" x="1258.82" y="-90" font-family="sans" font-size="10.00">geo: region</text>
<text text-anchor="middle" x="1258.82" y="-79" font-family="sans" font-size="10.00">sample: VSR</text>
</g>
<!-- 5&#45;&gt;14 -->
<g id="edge70" class="edge">
<title>5&#45;&gt;14</title>
<path fill="none" stroke="grey" stroke-width="2" d="M2904.68,-165.72C2708.58,-163.59 1510.34,-149.26 1306.34,-112.69"/>
<polygon fill="grey" stroke="grey" stroke-width="2" points="1306.85,-109.23 1296.36,-110.71 1305.48,-116.09 1306.85,-109.23"/>
</g>
<!-- 15 -->
<g id="node16" class="node">
<title>15</title>
<path fill="none" stroke="#56d863" stroke-width="2" d="M1377.32,-113C1377.32,-113 1326.32,-113 1326.32,-113 1320.32,-113 1314.32,-107 1314.32,-101 1314.32,-101 1314.32,-84 1314.32,-84 1314.32,-78 1320.32,-72 1326.32,-72 1326.32,-72 1377.32,-72 1377.32,-72 1383.32,-72 1389.32,-78 1389.32,-84 1389.32,-84 1389.32,-101 1389.32,-101 1389.32,-107 1383.32,-113 1377.32,-113"/>
<text text-anchor="middle" x="1351.82" y="-101" font-family="sans" font-size="10.00">test_results</text>
<text text-anchor="middle" x="1351.82" y="-90" font-family="sans" font-size="10.00">geo: states</text>
<text text-anchor="middle" x="1351.82" y="-79" font-family="sans" font-size="10.00">sample: VSR</text>
</g>
<!-- 5&#45;&gt;15 -->
<g id="edge71" class="edge">
<title>5&#45;&gt;15</title>
<path fill="none" stroke="grey" stroke-width="2" d="M2904.73,-165.65C2715.57,-163.1 1594.19,-146.78 1399.44,-112.42"/>
<polygon fill="grey" stroke="grey" stroke-width="2" points="1399.89,-108.94 1389.4,-110.46 1398.54,-115.81 1399.89,-108.94"/>
</g>
<!-- 16 -->
<g id="node17" class="node">
<title>16</title>
<path fill="none" stroke="#56d863" stroke-width="2" d="M1469.82,-113C1469.82,-113 1419.82,-113 1419.82,-113 1413.82,-113 1407.82,-107 1407.82,-101 1407.82,-101 1407.82,-84 1407.82,-84 1407.82,-78 1413.82,-72 1419.82,-72 1419.82,-72 1469.82,-72 1469.82,-72 1475.82,-72 1481.82,-78 1481.82,-84 1481.82,-84 1481.82,-101 1481.82,-101 1481.82,-107 1475.82,-113 1469.82,-113"/>
<text text-anchor="middle" x="1444.82" y="-101" font-family="sans" font-size="10.00">test_results</text>
<text text-anchor="middle" x="1444.82" y="-90" font-family="sans" font-size="10.00">geo: country</text>
<text text-anchor="middle" x="1444.82" y="-79" font-family="sans" font-size="10.00">sample: SC2</text>
</g>
<!-- 5&#45;&gt;16 -->
<g id="edge72" class="edge">
<title>5&#45;&gt;16</title>
<path fill="none" stroke="grey" stroke-width="2" d="M2904.59,-165.59C2721.84,-162.78 1675.72,-145.47 1491.8,-112.52"/>
<polygon fill="grey" stroke="grey" stroke-width="2" points="1492.34,-109.06 1481.85,-110.53 1490.97,-115.92 1492.34,-109.06"/>
</g>
<!-- 17 -->
<g id="node18" class="node">
<title>17</title>
<path fill="none" stroke="#56d863" stroke-width="2" d="M1561.82,-113C1561.82,-113 1511.82,-113 1511.82,-113 1505.82,-113 1499.82,-107 1499.82,-101 1499.82,-101 1499.82,-84 1499.82,-84 1499.82,-78 1505.82,-72 1511.82,-72 1511.82,-72 1561.82,-72 1561.82,-72 1567.82,-72 1573.82,-78 1573.82,-84 1573.82,-84 1573.82,-101 1573.82,-101 1573.82,-107 1567.82,-113 1561.82,-113"/>
<text text-anchor="middle" x="1536.82" y="-101" font-family="sans" font-size="10.00">test_results</text>
<text text-anchor="middle" x="1536.82" y="-90" font-family="sans" font-size="10.00">geo: region</text>
<text text-anchor="middle" x="1536.82" y="-79" font-family="sans" font-size="10.00">sample: SC2</text>
</g>
<!-- 5&#45;&gt;17 -->
<g id="edge73" class="edge">
<title>5&#45;&gt;17</title>
<path fill="none" stroke="grey" stroke-width="2" d="M2904.66,-166.26C2739.56,-167.66 1868.47,-172.16 1583.73,-112.67"/>
<polygon fill="grey" stroke="grey" stroke-width="2" points="1584.36,-109.22 1573.85,-110.52 1582.88,-116.06 1584.36,-109.22"/>
</g>
<!-- 18 -->
<g id="node19" class="node">
<title>18</title>
<path fill="none" stroke="#56d863" stroke-width="2" d="M1653.82,-113C1653.82,-113 1603.82,-113 1603.82,-113 1597.82,-113 1591.82,-107 1591.82,-101 1591.82,-101 1591.82,-84 1591.82,-84 1591.82,-78 1597.82,-72 1603.82,-72 1603.82,-72 1653.82,-72 1653.82,-72 1659.82,-72 1665.82,-78 1665.82,-84 1665.82,-84 1665.82,-101 1665.82,-101 1665.82,-107 1659.82,-113 1653.82,-113"/>
<text text-anchor="middle" x="1628.82" y="-101" font-family="sans" font-size="10.00">test_results</text>
<text text-anchor="middle" x="1628.82" y="-90" font-family="sans" font-size="10.00">geo: states</text>
<text text-anchor="middle" x="1628.82" y="-79" font-family="sans" font-size="10.00">sample: SC2</text>
</g>
<!-- 5&#45;&gt;18 -->
<g id="edge74" class="edge">
<title>5&#45;&gt;18</title>
<path fill="none" stroke="grey" stroke-width="2" d="M2904.72,-166.17C2746.61,-166.97 1941.47,-168.34 1675.83,-112.69"/>
<polygon fill="grey" stroke="grey" stroke-width="2" points="1676.37,-109.23 1665.85,-110.51 1674.87,-116.06 1676.37,-109.23"/>
</g>
<!-- 19 -->
<g id="node20" class="node">
<title>19</title>
<path fill="none" stroke="#56d863" stroke-width="2" d="M1753.32,-113C1753.32,-113 1696.32,-113 1696.32,-113 1690.32,-113 1684.32,-107 1684.32,-101 1684.32,-101 1684.32,-84 1684.32,-84 1684.32,-78 1690.32,-72 1696.32,-72 1696.32,-72 1753.32,-72 1753.32,-72 1759.32,-72 1765.32,-78 1765.32,-84 1765.32,-84 1765.32,-101 1765.32,-101 1765.32,-107 1759.32,-113 1753.32,-113"/>
<text text-anchor="middle" x="1724.82" y="-101" font-family="sans" font-size="10.00">test_results</text>
<text text-anchor="middle" x="1724.82" y="-90" font-family="sans" font-size="10.00">geo: country</text>
<text text-anchor="middle" x="1724.82" y="-79" font-family="sans" font-size="10.00">sample: META</text>
</g>
<!-- 5&#45;&gt;19 -->
<g id="edge75" class="edge">
<title>5&#45;&gt;19</title>
<path fill="none" stroke="grey" stroke-width="2" d="M2904.42,-165.98C2753.31,-165.67 2020.01,-161.76 1775.3,-112.88"/>
<polygon fill="grey" stroke="grey" stroke-width="2" points="1775.91,-109.44 1765.4,-110.83 1774.48,-116.29 1775.91,-109.44"/>
</g>
<!-- 20 -->
<g id="node21" class="node">
<title>20</title>
<path fill="none" stroke="#56d863" stroke-width="2" d="M1852.32,-113C1852.32,-113 1795.32,-113 1795.32,-113 1789.32,-113 1783.32,-107 1783.32,-101 1783.32,-101 1783.32,-84 1783.32,-84 1783.32,-78 1789.32,-72 1795.32,-72 1795.32,-72 1852.32,-72 1852.32,-72 1858.32,-72 1864.32,-78 1864.32,-84 1864.32,-84 1864.32,-101 1864.32,-101 1864.32,-107 1858.32,-113 1852.32,-113"/>
<text text-anchor="middle" x="1823.82" y="-101" font-family="sans" font-size="10.00">test_results</text>
<text text-anchor="middle" x="1823.82" y="-90" font-family="sans" font-size="10.00">geo: region</text>
<text text-anchor="middle" x="1823.82" y="-79" font-family="sans" font-size="10.00">sample: META</text>
</g>
<!-- 5&#45;&gt;20 -->
<g id="edge76" class="edge">
<title>5&#45;&gt;20</title>
<path fill="none" stroke="grey" stroke-width="2" d="M2904.42,-165.84C2761.37,-164.84 2098.59,-157.91 1874.43,-112.91"/>
<polygon fill="grey" stroke="grey" stroke-width="2" points="1874.91,-109.44 1864.41,-110.81 1873.48,-116.29 1874.91,-109.44"/>
</g>
<!-- 21 -->
<g id="node22" class="node">
<title>21</title>
<path fill="none" stroke="#56d863" stroke-width="2" d="M1951.32,-113C1951.32,-113 1894.32,-113 1894.32,-113 1888.32,-113 1882.32,-107 1882.32,-101 1882.32,-101 1882.32,-84 1882.32,-84 1882.32,-78 1888.32,-72 1894.32,-72 1894.32,-72 1951.32,-72 1951.32,-72 1957.32,-72 1963.32,-78 1963.32,-84 1963.32,-84 1963.32,-101 1963.32,-101 1963.32,-107 1957.32,-113 1951.32,-113"/>
<text text-anchor="middle" x="1922.82" y="-101" font-family="sans" font-size="10.00">test_results</text>
<text text-anchor="middle" x="1922.82" y="-90" font-family="sans" font-size="10.00">geo: states</text>
<text text-anchor="middle" x="1922.82" y="-79" font-family="sans" font-size="10.00">sample: META</text>
</g>
<!-- 5&#45;&gt;21 -->
<g id="edge77" class="edge">
<title>5&#45;&gt;21</title>
<path fill="none" stroke="grey" stroke-width="2" d="M2904.77,-165.68C2770.81,-163.94 2177.01,-154.11 1973.39,-112.91"/>
<polygon fill="grey" stroke="grey" stroke-width="2" points="1973.92,-109.44 1963.41,-110.8 1972.47,-116.29 1973.92,-109.44"/>
</g>
<!-- 22 -->
<g id="node23" class="node">
<title>22</title>
<path fill="none" stroke="#56d863" stroke-width="2" d="M2048.32,-113C2048.32,-113 1993.32,-113 1993.32,-113 1987.32,-113 1981.32,-107 1981.32,-101 1981.32,-101 1981.32,-84 1981.32,-84 1981.32,-78 1987.32,-72 1993.32,-72 1993.32,-72 2048.32,-72 2048.32,-72 2054.32,-72 2060.32,-78 2060.32,-84 2060.32,-84 2060.32,-101 2060.32,-101 2060.32,-107 2054.32,-113 2048.32,-113"/>
<text text-anchor="middle" x="2020.82" y="-101" font-family="sans" font-size="10.00">test_results</text>
<text text-anchor="middle" x="2020.82" y="-90" font-family="sans" font-size="10.00">geo: country</text>
<text text-anchor="middle" x="2020.82" y="-79" font-family="sans" font-size="10.00">sample: RINO</text>
</g>
<!-- 5&#45;&gt;22 -->
<g id="edge78" class="edge">
<title>5&#45;&gt;22</title>
<path fill="none" stroke="grey" stroke-width="2" d="M2904.59,-165.51C2778.92,-163.08 2253.67,-150.95 2070.59,-112.96"/>
<polygon fill="grey" stroke="grey" stroke-width="2" points="2071.09,-109.49 2060.57,-110.78 2069.6,-116.33 2071.09,-109.49"/>
</g>
<!-- 23 -->
<g id="node24" class="node">
<title>23</title>
<path fill="none" stroke="#56d863" stroke-width="2" d="M2145.32,-113C2145.32,-113 2090.32,-113 2090.32,-113 2084.32,-113 2078.32,-107 2078.32,-101 2078.32,-101 2078.32,-84 2078.32,-84 2078.32,-78 2084.32,-72 2090.32,-72 2090.32,-72 2145.32,-72 2145.32,-72 2151.32,-72 2157.32,-78 2157.32,-84 2157.32,-84 2157.32,-101 2157.32,-101 2157.32,-107 2151.32,-113 2145.32,-113"/>
<text text-anchor="middle" x="2117.82" y="-101" font-family="sans" font-size="10.00">test_results</text>
<text text-anchor="middle" x="2117.82" y="-90" font-family="sans" font-size="10.00">geo: region</text>
<text text-anchor="middle" x="2117.82" y="-79" font-family="sans" font-size="10.00">sample: RINO</text>
</g>
<!-- 5&#45;&gt;23 -->
<g id="edge79" class="edge">
<title>5&#45;&gt;23</title>
<path fill="none" stroke="grey" stroke-width="2" d="M2904.53,-165.27C2787.9,-161.96 2330.1,-147.18 2167.4,-112.93"/>
<polygon fill="grey" stroke="grey" stroke-width="2" points="2168.1,-109.5 2157.58,-110.75 2166.59,-116.33 2168.1,-109.5"/>
</g>
<!-- 24 -->
<g id="node25" class="node">
<title>24</title>
<path fill="none" stroke="#56d863" stroke-width="2" d="M2242.32,-113C2242.32,-113 2187.32,-113 2187.32,-113 2181.32,-113 2175.32,-107 2175.32,-101 2175.32,-101 2175.32,-84 2175.32,-84 2175.32,-78 2181.32,-72 2187.32,-72 2187.32,-72 2242.32,-72 2242.32,-72 2248.32,-72 2254.32,-78 2254.32,-84 2254.32,-84 2254.32,-101 2254.32,-101 2254.32,-107 2248.32,-113 2242.32,-113"/>
<text text-anchor="middle" x="2214.82" y="-101" font-family="sans" font-size="10.00">test_results</text>
<text text-anchor="middle" x="2214.82" y="-90" font-family="sans" font-size="10.00">geo: states</text>
<text text-anchor="middle" x="2214.82" y="-79" font-family="sans" font-size="10.00">sample: RINO</text>
</g>
<!-- 5&#45;&gt;24 -->
<g id="edge80" class="edge">
<title>5&#45;&gt;24</title>
<path fill="none" stroke="grey" stroke-width="2" d="M2904.75,-164.96C2798.2,-160.71 2407.04,-143.49 2264.17,-112.87"/>
<polygon fill="grey" stroke="grey" stroke-width="2" points="2264.85,-109.43 2254.32,-110.64 2263.3,-116.26 2264.85,-109.43"/>
</g>
<!-- 25 -->
<g id="node26" class="node">
<title>25</title>
<path fill="none" stroke="#56d863" stroke-width="2" d="M2341.32,-113C2341.32,-113 2284.32,-113 2284.32,-113 2278.32,-113 2272.32,-107 2272.32,-101 2272.32,-101 2272.32,-84 2272.32,-84 2272.32,-78 2278.32,-72 2284.32,-72 2284.32,-72 2341.32,-72 2341.32,-72 2347.32,-72 2353.32,-78 2353.32,-84 2353.32,-84 2353.32,-101 2353.32,-101 2353.32,-107 2347.32,-113 2341.32,-113"/>
<text text-anchor="middle" x="2312.82" y="-101" font-family="sans" font-size="10.00">test_results</text>
<text text-anchor="middle" x="2312.82" y="-90" font-family="sans" font-size="10.00">geo: country</text>
<text text-anchor="middle" x="2312.82" y="-79" font-family="sans" font-size="10.00">sample: PARA</text>
</g>
<!-- 5&#45;&gt;25 -->
<g id="edge81" class="edge">
<title>5&#45;&gt;25</title>
<path fill="none" stroke="grey" stroke-width="2" d="M2904.66,-166.2C2823.22,-166.24 2574.15,-162.22 2363.44,-113.05"/>
<polygon fill="grey" stroke="grey" stroke-width="2" points="2363.98,-109.58 2353.44,-110.68 2362.36,-116.39 2363.98,-109.58"/>
</g>
<!-- 26 -->
<g id="node27" class="node">
<title>26</title>
<path fill="none" stroke="#56d863" stroke-width="2" d="M2440.32,-113C2440.32,-113 2383.32,-113 2383.32,-113 2377.32,-113 2371.32,-107 2371.32,-101 2371.32,-101 2371.32,-84 2371.32,-84 2371.32,-78 2377.32,-72 2383.32,-72 2383.32,-72 2440.32,-72 2440.32,-72 2446.32,-72 2452.32,-78 2452.32,-84 2452.32,-84 2452.32,-101 2452.32,-101 2452.32,-107 2446.32,-113 2440.32,-113"/>
<text text-anchor="middle" x="2411.82" y="-101" font-family="sans" font-size="10.00">test_results</text>
<text text-anchor="middle" x="2411.82" y="-90" font-family="sans" font-size="10.00">geo: region</text>
<text text-anchor="middle" x="2411.82" y="-79" font-family="sans" font-size="10.00">sample: PARA</text>
</g>
<!-- 5&#45;&gt;26 -->
<g id="edge82" class="edge">
<title>5&#45;&gt;26</title>
<path fill="none" stroke="grey" stroke-width="2" d="M2904.81,-165.47C2833.41,-163.53 2633.84,-154.73 2462.4,-113.08"/>
<polygon fill="grey" stroke="grey" stroke-width="2" points="2463,-109.62 2452.45,-110.61 2461.32,-116.41 2463,-109.62"/>
</g>
<!-- 27 -->
<g id="node28" class="node">
<title>27</title>
<path fill="none" stroke="#56d863" stroke-width="2" d="M2539.32,-113C2539.32,-113 2482.32,-113 2482.32,-113 2476.32,-113 2470.32,-107 2470.32,-101 2470.32,-101 2470.32,-84 2470.32,-84 2470.32,-78 2476.32,-72 2482.32,-72 2482.32,-72 2539.32,-72 2539.32,-72 2545.32,-72 2551.32,-78 2551.32,-84 2551.32,-84 2551.32,-101 2551.32,-101 2551.32,-107 2545.32,-113 2539.32,-113"/>
<text text-anchor="middle" x="2510.82" y="-101" font-family="sans" font-size="10.00">test_results</text>
<text text-anchor="middle" x="2510.82" y="-90" font-family="sans" font-size="10.00">geo: states</text>
<text text-anchor="middle" x="2510.82" y="-79" font-family="sans" font-size="10.00">sample: PARA</text>
</g>
<!-- 5&#45;&gt;27 -->
<g id="edge83" class="edge">
<title>5&#45;&gt;27</title>
<path fill="none" stroke="grey" stroke-width="2" d="M2904.77,-164.35C2844.32,-160.2 2693.8,-147.29 2561.38,-113.12"/>
<polygon fill="grey" stroke="grey" stroke-width="2" points="2562.04,-109.68 2551.48,-110.52 2560.26,-116.45 2562.04,-109.68"/>
</g>
<!-- 28 -->
<g id="node29" class="node">
<title>28</title>
<path fill="none" stroke="#56d863" stroke-width="2" d="M2646.32,-113C2646.32,-113 2581.32,-113 2581.32,-113 2575.32,-113 2569.32,-107 2569.32,-101 2569.32,-101 2569.32,-84 2569.32,-84 2569.32,-78 2575.32,-72 2581.32,-72 2581.32,-72 2646.32,-72 2646.32,-72 2652.32,-72 2658.32,-78 2658.32,-84 2658.32,-84 2658.32,-101 2658.32,-101 2658.32,-107 2652.32,-113 2646.32,-113"/>
<text text-anchor="middle" x="2613.82" y="-101" font-family="sans" font-size="10.00">test_results</text>
<text text-anchor="middle" x="2613.82" y="-90" font-family="sans" font-size="10.00">geo: country</text>
<text text-anchor="middle" x="2613.82" y="-79" font-family="sans" font-size="10.00">sample: ADENO</text>
</g>
<!-- 5&#45;&gt;28 -->
<g id="edge84" class="edge">
<title>5&#45;&gt;28</title>
<path fill="none" stroke="grey" stroke-width="2" d="M2904.78,-162.02C2858.13,-154.84 2759.44,-138.32 2668.14,-113.19"/>
<polygon fill="grey" stroke="grey" stroke-width="2" points="2669.05,-109.81 2658.47,-110.48 2667.16,-116.55 2669.05,-109.81"/>
</g>
<!-- 29 -->
<g id="node30" class="node">
<title>29</title>
<path fill="none" stroke="#56d863" stroke-width="2" d="M2753.32,-113C2753.32,-113 2688.32,-113 2688.32,-113 2682.32,-113 2676.32,-107 2676.32,-101 2676.32,-101 2676.32,-84 2676.32,-84 2676.32,-78 2682.32,-72 2688.32,-72 2688.32,-72 2753.32,-72 2753.32,-72 2759.32,-72 2765.32,-78 2765.32,-84 2765.32,-84 2765.32,-101 2765.32,-101 2765.32,-107 2759.32,-113 2753.32,-113"/>
<text text-anchor="middle" x="2720.82" y="-101" font-family="sans" font-size="10.00">test_results</text>
<text text-anchor="middle" x="2720.82" y="-90" font-family="sans" font-size="10.00">geo: region</text>
<text text-anchor="middle" x="2720.82" y="-79" font-family="sans" font-size="10.00">sample: ADENO</text>
</g>
<!-- 5&#45;&gt;29 -->
<g id="edge85" class="edge">
<title>5&#45;&gt;29</title>
<path fill="none" stroke="grey" stroke-width="2" d="M2904.61,-157.14C2874.91,-147.41 2825.73,-131.13 2775.07,-113.41"/>
<polygon fill="grey" stroke="grey" stroke-width="2" points="2776.2,-110.09 2765.6,-110.08 2773.88,-116.7 2776.2,-110.09"/>
</g>
<!-- 30 -->
<g id="node31" class="node">
<title>30</title>
<path fill="none" stroke="#56d863" stroke-width="2" d="M2860.32,-113C2860.32,-113 2795.32,-113 2795.32,-113 2789.32,-113 2783.32,-107 2783.32,-101 2783.32,-101 2783.32,-84 2783.32,-84 2783.32,-78 2789.32,-72 2795.32,-72 2795.32,-72 2860.32,-72 2860.32,-72 2866.32,-72 2872.32,-78 2872.32,-84 2872.32,-84 2872.32,-101 2872.32,-101 2872.32,-107 2866.32,-113 2860.32,-113"/>
<text text-anchor="middle" x="2827.82" y="-101" font-family="sans" font-size="10.00">test_results</text>
<text text-anchor="middle" x="2827.82" y="-90" font-family="sans" font-size="10.00">geo: states</text>
<text text-anchor="middle" x="2827.82" y="-79" font-family="sans" font-size="10.00">sample: ADENO</text>
</g>
<!-- 5&#45;&gt;30 -->
<g id="edge86" class="edge">
<title>5&#45;&gt;30</title>
<path fill="none" stroke="grey" stroke-width="2" d="M2907.17,-148.82C2894.43,-139.94 2878.64,-128.93 2864.5,-119.08"/>
<polygon fill="grey" stroke="grey" stroke-width="2" points="2866.16,-115.97 2855.96,-113.12 2862.16,-121.71 2866.16,-115.97"/>
</g>
<!-- 31 -->
<g id="node32" class="node">
<title>31</title>
<path fill="none" stroke="#56d863" stroke-width="2" d="M2961.32,-113C2961.32,-113 2902.32,-113 2902.32,-113 2896.32,-113 2890.32,-107 2890.32,-101 2890.32,-101 2890.32,-84 2890.32,-84 2890.32,-78 2896.32,-72 2902.32,-72 2902.32,-72 2961.32,-72 2961.32,-72 2967.32,-72 2973.32,-78 2973.32,-84 2973.32,-84 2973.32,-101 2973.32,-101 2973.32,-107 2967.32,-113 2961.32,-113"/>
<text text-anchor="middle" x="2931.82" y="-101" font-family="sans" font-size="10.00">test_results</text>
<text text-anchor="middle" x="2931.82" y="-90" font-family="sans" font-size="10.00">geo: country</text>
<text text-anchor="middle" x="2931.82" y="-79" font-family="sans" font-size="10.00">sample: BOCA</text>
</g>
<!-- 5&#45;&gt;31 -->
<g id="edge87" class="edge">
<title>5&#45;&gt;31</title>
<path fill="none" stroke="grey" stroke-width="2" d="M2931.82,-148.82C2931.82,-141.2 2931.82,-132 2931.82,-123.32"/>
<polygon fill="grey" stroke="grey" stroke-width="2" points="2935.32,-123.12 2931.82,-113.12 2928.32,-123.12 2935.32,-123.12"/>
</g>
<!-- 32 -->
<g id="node33" class="node">
<title>32</title>
<path fill="none" stroke="#56d863" stroke-width="2" d="M3062.32,-113C3062.32,-113 3003.32,-113 3003.32,-113 2997.32,-113 2991.32,-107 2991.32,-101 2991.32,-101 2991.32,-84 2991.32,-84 2991.32,-78 2997.32,-72 3003.32,-72 3003.32,-72 3062.32,-72 3062.32,-72 3068.32,-72 3074.32,-78 3074.32,-84 3074.32,-84 3074.32,-101 3074.32,-101 3074.32,-107 3068.32,-113 3062.32,-113"/>
<text text-anchor="middle" x="3032.82" y="-101" font-family="sans" font-size="10.00">test_results</text>
<text text-anchor="middle" x="3032.82" y="-90" font-family="sans" font-size="10.00">geo: region</text>
<text text-anchor="middle" x="3032.82" y="-79" font-family="sans" font-size="10.00">sample: BOCA</text>
</g>
<!-- 5&#45;&gt;32 -->
<g id="edge88" class="edge">
<title>5&#45;&gt;32</title>
<path fill="none" stroke="grey" stroke-width="2" d="M2955.75,-148.82C2968.12,-139.94 2983.46,-128.93 2997.18,-119.08"/>
<polygon fill="grey" stroke="grey" stroke-width="2" points="2999.4,-121.79 3005.48,-113.12 2995.32,-116.11 2999.4,-121.79"/>
</g>
<!-- 33 -->
<g id="node34" class="node">
<title>33</title>
<path fill="none" stroke="#56d863" stroke-width="2" d="M3163.32,-113C3163.32,-113 3104.32,-113 3104.32,-113 3098.32,-113 3092.32,-107 3092.32,-101 3092.32,-101 3092.32,-84 3092.32,-84 3092.32,-78 3098.32,-72 3104.32,-72 3104.32,-72 3163.32,-72 3163.32,-72 3169.32,-72 3175.32,-78 3175.32,-84 3175.32,-84 3175.32,-101 3175.32,-101 3175.32,-107 3169.32,-113 3163.32,-113"/>
<text text-anchor="middle" x="3133.82" y="-101" font-family="sans" font-size="10.00">test_results</text>
<text text-anchor="middle" x="3133.82" y="-90" font-family="sans" font-size="10.00">geo: states</text>
<text text-anchor="middle" x="3133.82" y="-79" font-family="sans" font-size="10.00">sample: BOCA</text>
</g>
<!-- 5&#45;&gt;33 -->
<g id="edge89" class="edge">
<title>5&#45;&gt;33</title>
<path fill="none" stroke="grey" stroke-width="2" d="M2958.83,-156.91C2987.46,-147.21 3034.2,-131.16 3082.72,-113.36"/>
<polygon fill="grey" stroke="grey" stroke-width="2" points="3083.94,-116.63 3092.12,-109.89 3081.52,-110.07 3083.94,-116.63"/>
</g>
<!-- 34 -->
<g id="node35" class="node">
<title>34</title>
<path fill="none" stroke="#56d863" stroke-width="2" d="M3264.32,-113C3264.32,-113 3205.32,-113 3205.32,-113 3199.32,-113 3193.32,-107 3193.32,-101 3193.32,-101 3193.32,-84 3193.32,-84 3193.32,-78 3199.32,-72 3205.32,-72 3205.32,-72 3264.32,-72 3264.32,-72 3270.32,-72 3276.32,-78 3276.32,-84 3276.32,-84 3276.32,-101 3276.32,-101 3276.32,-107 3270.32,-113 3264.32,-113"/>
<text text-anchor="middle" x="3234.82" y="-101" font-family="sans" font-size="10.00">test_results</text>
<text text-anchor="middle" x="3234.82" y="-90" font-family="sans" font-size="10.00">geo: country</text>
<text text-anchor="middle" x="3234.82" y="-79" font-family="sans" font-size="10.00">sample: COVS</text>
</g>
<!-- 5&#45;&gt;34 -->
<g id="edge90" class="edge">
<title>5&#45;&gt;34</title>
<path fill="none" stroke="grey" stroke-width="2" d="M2959.14,-161.8C3004.24,-154.54 3097.13,-138.23 3183.56,-113.16"/>
<polygon fill="grey" stroke="grey" stroke-width="2" points="3184.65,-116.49 3193.25,-110.3 3182.67,-109.77 3184.65,-116.49"/>
</g>
<!-- 35 -->
<g id="node36" class="node">
<title>35</title>
<path fill="none" stroke="#56d863" stroke-width="2" d="M3365.32,-113C3365.32,-113 3306.32,-113 3306.32,-113 3300.32,-113 3294.32,-107 3294.32,-101 3294.32,-101 3294.32,-84 3294.32,-84 3294.32,-78 3300.32,-72 3306.32,-72 3306.32,-72 3365.32,-72 3365.32,-72 3371.32,-72 3377.32,-78 3377.32,-84 3377.32,-84 3377.32,-101 3377.32,-101 3377.32,-107 3371.32,-113 3365.32,-113"/>
<text text-anchor="middle" x="3335.82" y="-101" font-family="sans" font-size="10.00">test_results</text>
<text text-anchor="middle" x="3335.82" y="-90" font-family="sans" font-size="10.00">geo: region</text>
<text text-anchor="middle" x="3335.82" y="-79" font-family="sans" font-size="10.00">sample: COVS</text>
</g>
<!-- 5&#45;&gt;35 -->
<g id="edge91" class="edge">
<title>5&#45;&gt;35</title>
<path fill="none" stroke="grey" stroke-width="2" d="M2958.88,-164.02C3017.17,-159.32 3158.87,-145.54 3284.52,-113.07"/>
<polygon fill="grey" stroke="grey" stroke-width="2" points="3285.53,-116.42 3294.31,-110.49 3283.74,-109.65 3285.53,-116.42"/>
</g>
<!-- 36 -->
<g id="node37" class="node">
<title>36</title>
<path fill="none" stroke="#56d863" stroke-width="2" d="M3466.32,-113C3466.32,-113 3407.32,-113 3407.32,-113 3401.32,-113 3395.32,-107 3395.32,-101 3395.32,-101 3395.32,-84 3395.32,-84 3395.32,-78 3401.32,-72 3407.32,-72 3407.32,-72 3466.32,-72 3466.32,-72 3472.32,-72 3478.32,-78 3478.32,-84 3478.32,-84 3478.32,-101 3478.32,-101 3478.32,-107 3472.32,-113 3466.32,-113"/>
<text text-anchor="middle" x="3436.82" y="-101" font-family="sans" font-size="10.00">test_results</text>
<text text-anchor="middle" x="3436.82" y="-90" font-family="sans" font-size="10.00">geo: states</text>
<text text-anchor="middle" x="3436.82" y="-79" font-family="sans" font-size="10.00">sample: COVS</text>
</g>
<!-- 5&#45;&gt;36 -->
<g id="edge92" class="edge">
<title>5&#45;&gt;36</title>
<path fill="none" stroke="grey" stroke-width="2" d="M2958.91,-165.25C3028.7,-162.82 3220.16,-152.96 3385.22,-113.1"/>
<polygon fill="grey" stroke="grey" stroke-width="2" points="3386.18,-116.47 3395.06,-110.68 3384.51,-109.67 3386.18,-116.47"/>
</g>
<!-- 37 -->
<g id="node38" class="node">
<title>37</title>
<path fill="none" stroke="#56d863" stroke-width="2" d="M3580.82,-113C3580.82,-113 3508.82,-113 3508.82,-113 3502.82,-113 3496.82,-107 3496.82,-101 3496.82,-101 3496.82,-84 3496.82,-84 3496.82,-78 3502.82,-72 3508.82,-72 3508.82,-72 3580.82,-72 3580.82,-72 3586.82,-72 3592.82,-78 3592.82,-84 3592.82,-84 3592.82,-101 3592.82,-101 3592.82,-107 3586.82,-113 3580.82,-113"/>
<text text-anchor="middle" x="3544.82" y="-101" font-family="sans" font-size="10.00">test_results</text>
<text text-anchor="middle" x="3544.82" y="-90" font-family="sans" font-size="10.00">geo: country</text>
<text text-anchor="middle" x="3544.82" y="-79" font-family="sans" font-size="10.00">sample: ENTERO</text>
</g>
<!-- 5&#45;&gt;37 -->
<g id="edge93" class="edge">
<title>5&#45;&gt;37</title>
<path fill="none" stroke="grey" stroke-width="2" d="M2959.06,-165.65C3039.11,-164.17 3280.35,-156.32 3486.72,-112.97"/>
<polygon fill="grey" stroke="grey" stroke-width="2" points="3487.47,-116.39 3496.52,-110.88 3486.01,-109.55 3487.47,-116.39"/>
</g>
<!-- 38 -->
<g id="node39" class="node">
<title>38</title>
<path fill="none" stroke="#56d863" stroke-width="2" d="M3694.82,-113C3694.82,-113 3622.82,-113 3622.82,-113 3616.82,-113 3610.82,-107 3610.82,-101 3610.82,-101 3610.82,-84 3610.82,-84 3610.82,-78 3616.82,-72 3622.82,-72 3622.82,-72 3694.82,-72 3694.82,-72 3700.82,-72 3706.82,-78 3706.82,-84 3706.82,-84 3706.82,-101 3706.82,-101 3706.82,-107 3700.82,-113 3694.82,-113"/>
<text text-anchor="middle" x="3658.82" y="-101" font-family="sans" font-size="10.00">test_results</text>
<text text-anchor="middle" x="3658.82" y="-90" font-family="sans" font-size="10.00">geo: region</text>
<text text-anchor="middle" x="3658.82" y="-79" font-family="sans" font-size="10.00">sample: ENTERO</text>
</g>
<!-- 5&#45;&gt;38 -->
<g id="edge94" class="edge">
<title>5&#45;&gt;38</title>
<path fill="none" stroke="grey" stroke-width="2" d="M2958.96,-166.27C3049.35,-166.68 3348.14,-163.97 3600.45,-113.01"/>
<polygon fill="grey" stroke="grey" stroke-width="2" points="3601.44,-116.37 3610.54,-110.94 3600.04,-109.52 3601.44,-116.37"/>
</g>
<!-- 39 -->
<g id="node40" class="node">
<title>39</title>
<path fill="none" stroke="#56d863" stroke-width="2" d="M3808.82,-113C3808.82,-113 3736.82,-113 3736.82,-113 3730.82,-113 3724.82,-107 3724.82,-101 3724.82,-101 3724.82,-84 3724.82,-84 3724.82,-78 3730.82,-72 3736.82,-72 3736.82,-72 3808.82,-72 3808.82,-72 3814.82,-72 3820.82,-78 3820.82,-84 3820.82,-84 3820.82,-101 3820.82,-101 3820.82,-107 3814.82,-113 3808.82,-113"/>
<text text-anchor="middle" x="3772.82" y="-101" font-family="sans" font-size="10.00">test_results</text>
<text text-anchor="middle" x="3772.82" y="-90" font-family="sans" font-size="10.00">geo: states</text>
<text text-anchor="middle" x="3772.82" y="-79" font-family="sans" font-size="10.00">sample: ENTERO</text>
</g>
<!-- 5&#45;&gt;39 -->
<g id="edge95" class="edge">
<title>5&#45;&gt;39</title>
<path fill="none" stroke="grey" stroke-width="2" d="M2958.88,-165.12C3076.8,-161.15 3546.84,-143.82 3714.64,-112.89"/>
<polygon fill="grey" stroke="grey" stroke-width="2" points="3715.39,-116.31 3724.54,-110.98 3714.06,-109.44 3715.39,-116.31"/>
</g>
<!-- 40 -->
<g id="node41" class="node">
<title>40</title>
<path fill="none" stroke="#56d863" stroke-width="2" d="M3902.32,-113C3902.32,-113 3851.32,-113 3851.32,-113 3845.32,-113 3839.32,-107 3839.32,-101 3839.32,-101 3839.32,-84 3839.32,-84 3839.32,-78 3845.32,-72 3851.32,-72 3851.32,-72 3902.32,-72 3902.32,-72 3908.32,-72 3914.32,-78 3914.32,-84 3914.32,-84 3914.32,-101 3914.32,-101 3914.32,-107 3908.32,-113 3902.32,-113"/>
<text text-anchor="middle" x="3876.82" y="-101" font-family="sans" font-size="10.00">test_results</text>
<text text-anchor="middle" x="3876.82" y="-90" font-family="sans" font-size="10.00">geo: country</text>
<text text-anchor="middle" x="3876.82" y="-79" font-family="sans" font-size="10.00">sample: BAC</text>
</g>
<!-- 5&#45;&gt;40 -->
<g id="edge96" class="edge">
<title>5&#45;&gt;40</title>
<path fill="none" stroke="grey" stroke-width="2" d="M2958.84,-165.62C3087.34,-163.61 3637.99,-152.95 3829.29,-112.57"/>
<polygon fill="grey" stroke="grey" stroke-width="2" points="3830.2,-115.95 3839.21,-110.37 3828.69,-109.12 3830.2,-115.95"/>
</g>
<!-- 41 -->
<g id="node42" class="node">
<title>41</title>
<path fill="none" stroke="#56d863" stroke-width="2" d="M3995.32,-113C3995.32,-113 3944.32,-113 3944.32,-113 3938.32,-113 3932.32,-107 3932.32,-101 3932.32,-101 3932.32,-84 3932.32,-84 3932.32,-78 3938.32,-72 3944.32,-72 3944.32,-72 3995.32,-72 3995.32,-72 4001.32,-72 4007.32,-78 4007.32,-84 4007.32,-84 4007.32,-101 4007.32,-101 4007.32,-107 4001.32,-113 3995.32,-113"/>
<text text-anchor="middle" x="3969.82" y="-101" font-family="sans" font-size="10.00">test_results</text>
<text text-anchor="middle" x="3969.82" y="-90" font-family="sans" font-size="10.00">geo: region</text>
<text text-anchor="middle" x="3969.82" y="-79" font-family="sans" font-size="10.00">sample: BAC</text>
</g>
<!-- 5&#45;&gt;41 -->
<g id="edge97" class="edge">
<title>5&#45;&gt;41</title>
<path fill="none" stroke="grey" stroke-width="2" d="M2958.86,-165.82C3095.6,-164.71 3712.34,-157.42 3922.28,-112.86"/>
<polygon fill="grey" stroke="grey" stroke-width="2" points="3923.26,-116.23 3932.26,-110.64 3921.74,-109.4 3923.26,-116.23"/>
</g>
<!-- 42 -->
<g id="node43" class="node">
<title>42</title>
<path fill="none" stroke="#56d863" stroke-width="2" d="M4088.32,-113C4088.32,-113 4037.32,-113 4037.32,-113 4031.32,-113 4025.32,-107 4025.32,-101 4025.32,-101 4025.32,-84 4025.32,-84 4025.32,-78 4031.32,-72 4037.32,-72 4037.32,-72 4088.32,-72 4088.32,-72 4094.32,-72 4100.32,-78 4100.32,-84 4100.32,-84 4100.32,-101 4100.32,-101 4100.32,-107 4094.32,-113 4088.32,-113"/>
<text text-anchor="middle" x="4062.82" y="-101" font-family="sans" font-size="10.00">test_results</text>
<text text-anchor="middle" x="4062.82" y="-90" font-family="sans" font-size="10.00">geo: states</text>
<text text-anchor="middle" x="4062.82" y="-79" font-family="sans" font-size="10.00">sample: BAC</text>
</g>
<!-- 5&#45;&gt;42 -->
<g id="edge98" class="edge">
<title>5&#45;&gt;42</title>
<path fill="none" stroke="grey" stroke-width="2" d="M2958.93,-165.96C3103.59,-165.56 3786.13,-161.23 4015.34,-112.85"/>
<polygon fill="grey" stroke="grey" stroke-width="2" points="4016.25,-116.23 4025.26,-110.66 4014.74,-109.39 4016.25,-116.23"/>
</g>
<!-- 49 -->
<g id="node50" class="node">
<title>49</title>
<path fill="none" stroke="#56a2d8" stroke-width="2" d="M4186.82,-110.5C4186.82,-110.5 4130.82,-110.5 4130.82,-110.5 4124.82,-110.5 4118.82,-104.5 4118.82,-98.5 4118.82,-98.5 4118.82,-86.5 4118.82,-86.5 4118.82,-80.5 4124.82,-74.5 4130.82,-74.5 4130.82,-74.5 4186.82,-74.5 4186.82,-74.5 4192.82,-74.5 4198.82,-80.5 4198.82,-86.5 4198.82,-86.5 4198.82,-98.5 4198.82,-98.5 4198.82,-104.5 4192.82,-110.5 4186.82,-110.5"/>
<text text-anchor="middle" x="4158.82" y="-95.5" font-family="sans" font-size="10.00">demog</text>
<text text-anchor="middle" x="4158.82" y="-84.5" font-family="sans" font-size="10.00">sample: FLUA</text>
</g>
<!-- 5&#45;&gt;49 -->
<g id="edge108" class="edge">
<title>5&#45;&gt;49</title>
<path fill="none" stroke="grey" stroke-width="2" d="M2958.93,-166C3110.92,-165.84 3858.92,-162.57 4108.94,-112.68"/>
<polygon fill="grey" stroke="grey" stroke-width="2" points="4109.97,-116.05 4119.04,-110.58 4108.54,-109.19 4109.97,-116.05"/>
</g>
<!-- 50 -->
<g id="node51" class="node">
<title>50</title>
<path fill="none" stroke="#56a2d8" stroke-width="2" d="M4284.82,-110.5C4284.82,-110.5 4228.82,-110.5 4228.82,-110.5 4222.82,-110.5 4216.82,-104.5 4216.82,-98.5 4216.82,-98.5 4216.82,-86.5 4216.82,-86.5 4216.82,-80.5 4222.82,-74.5 4228.82,-74.5 4228.82,-74.5 4284.82,-74.5 4284.82,-74.5 4290.82,-74.5 4296.82,-80.5 4296.82,-86.5 4296.82,-86.5 4296.82,-98.5 4296.82,-98.5 4296.82,-104.5 4290.82,-110.5 4284.82,-110.5"/>
<text text-anchor="middle" x="4256.82" y="-95.5" font-family="sans" font-size="10.00">demog</text>
<text text-anchor="middle" x="4256.82" y="-84.5" font-family="sans" font-size="10.00">sample: FLUB</text>
</g>
<!-- 5&#45;&gt;50 -->
<g id="edge109" class="edge">
<title>5&#45;&gt;50</title>
<path fill="none" stroke="grey" stroke-width="2" d="M2959.04,-166.11C3118.8,-166.58 3936.36,-166.39 4207.15,-112.61"/>
<polygon fill="grey" stroke="grey" stroke-width="2" points="4208.23,-115.96 4217.32,-110.51 4206.82,-109.11 4208.23,-115.96"/>
</g>
<!-- 51 -->
<g id="node52" class="node">
<title>51</title>
<path fill="none" stroke="#56a2d8" stroke-width="2" d="M4378.32,-110.5C4378.32,-110.5 4327.32,-110.5 4327.32,-110.5 4321.32,-110.5 4315.32,-104.5 4315.32,-98.5 4315.32,-98.5 4315.32,-86.5 4315.32,-86.5 4315.32,-80.5 4321.32,-74.5 4327.32,-74.5 4327.32,-74.5 4378.32,-74.5 4378.32,-74.5 4384.32,-74.5 4390.32,-80.5 4390.32,-86.5 4390.32,-86.5 4390.32,-98.5 4390.32,-98.5 4390.32,-104.5 4384.32,-110.5 4378.32,-110.5"/>
<text text-anchor="middle" x="4352.82" y="-95.5" font-family="sans" font-size="10.00">demog</text>
<text text-anchor="middle" x="4352.82" y="-84.5" font-family="sans" font-size="10.00">sample: VSR</text>
</g>
<!-- 5&#45;&gt;51 -->
<g id="edge110" class="edge">
<title>5&#45;&gt;51</title>
<path fill="none" stroke="grey" stroke-width="2" d="M2958.92,-166.26C3125.65,-167.64 4014.3,-172.19 4305.13,-112.59"/>
<polygon fill="grey" stroke="grey" stroke-width="2" points="4306.17,-115.95 4315.22,-110.44 4304.72,-109.1 4306.17,-115.95"/>
</g>
<!-- 52 -->
<g id="node53" class="node">
<title>52</title>
<path fill="none" stroke="#56a2d8" stroke-width="2" d="M4470.82,-110.5C4470.82,-110.5 4420.82,-110.5 4420.82,-110.5 4414.82,-110.5 4408.82,-104.5 4408.82,-98.5 4408.82,-98.5 4408.82,-86.5 4408.82,-86.5 4408.82,-80.5 4414.82,-74.5 4420.82,-74.5 4420.82,-74.5 4470.82,-74.5 4470.82,-74.5 4476.82,-74.5 4482.82,-80.5 4482.82,-86.5 4482.82,-86.5 4482.82,-98.5 4482.82,-98.5 4482.82,-104.5 4476.82,-110.5 4470.82,-110.5"/>
<text text-anchor="middle" x="4445.82" y="-95.5" font-family="sans" font-size="10.00">demog</text>
<text text-anchor="middle" x="4445.82" y="-84.5" font-family="sans" font-size="10.00">sample: SC2</text>
</g>
<!-- 5&#45;&gt;52 -->
<g id="edge111" class="edge">
<title>5&#45;&gt;52</title>
<path fill="none" stroke="grey" stroke-width="2" d="M2958.95,-165.61C3143.49,-162.91 4212.27,-146.02 4398.93,-112.51"/>
<polygon fill="grey" stroke="grey" stroke-width="2" points="4399.67,-115.93 4408.79,-110.53 4398.29,-109.06 4399.67,-115.93"/>
</g>
<!-- 53 -->
<g id="node54" class="node">
<title>53</title>
<path fill="none" stroke="#56a2d8" stroke-width="2" d="M4570.32,-110.5C4570.32,-110.5 4513.32,-110.5 4513.32,-110.5 4507.32,-110.5 4501.32,-104.5 4501.32,-98.5 4501.32,-98.5 4501.32,-86.5 4501.32,-86.5 4501.32,-80.5 4507.32,-74.5 4513.32,-74.5 4513.32,-74.5 4570.32,-74.5 4570.32,-74.5 4576.32,-74.5 4582.32,-80.5 4582.32,-86.5 4582.32,-86.5 4582.32,-98.5 4582.32,-98.5 4582.32,-104.5 4576.32,-110.5 4570.32,-110.5"/>
<text text-anchor="middle" x="4541.82" y="-95.5" font-family="sans" font-size="10.00">demog</text>
<text text-anchor="middle" x="4541.82" y="-84.5" font-family="sans" font-size="10.00">sample: META</text>
</g>
<!-- 5&#45;&gt;53 -->
<g id="edge112" class="edge">
<title>5&#45;&gt;53</title>
<path fill="none" stroke="grey" stroke-width="2" d="M2959.06,-165.63C3150.66,-162.94 4293.66,-145.69 4491.55,-112.39"/>
<polygon fill="grey" stroke="grey" stroke-width="2" points="4492.32,-115.81 4501.51,-110.54 4491.03,-108.93 4492.32,-115.81"/>
</g>
<!-- 54 -->
<g id="node55" class="node">
<title>54</title>
<path fill="none" stroke="#56a2d8" stroke-width="2" d="M4667.32,-110.5C4667.32,-110.5 4612.32,-110.5 4612.32,-110.5 4606.32,-110.5 4600.32,-104.5 4600.32,-98.5 4600.32,-98.5 4600.32,-86.5 4600.32,-86.5 4600.32,-80.5 4606.32,-74.5 4612.32,-74.5 4612.32,-74.5 4667.32,-74.5 4667.32,-74.5 4673.32,-74.5 4679.32,-80.5 4679.32,-86.5 4679.32,-86.5 4679.32,-98.5 4679.32,-98.5 4679.32,-104.5 4673.32,-110.5 4667.32,-110.5"/>
<text text-anchor="middle" x="4639.82" y="-95.5" font-family="sans" font-size="10.00">demog</text>
<text text-anchor="middle" x="4639.82" y="-84.5" font-family="sans" font-size="10.00">sample: RINO</text>
</g>
<!-- 5&#45;&gt;54 -->
<g id="edge113" class="edge">
<title>5&#45;&gt;54</title>
<path fill="none" stroke="grey" stroke-width="2" d="M2958.85,-165.71C3156.99,-163.53 4382.81,-148.72 4591.21,-112.46"/>
<polygon fill="grey" stroke="grey" stroke-width="2" points="4591.99,-115.87 4601.15,-110.55 4590.67,-109 4591.99,-115.87"/>
</g>
<!-- 55 -->
<g id="node56" class="node">
<title>55</title>
<path fill="none" stroke="#56a2d8" stroke-width="2" d="M4766.32,-110.5C4766.32,-110.5 4709.32,-110.5 4709.32,-110.5 4703.32,-110.5 4697.32,-104.5 4697.32,-98.5 4697.32,-98.5 4697.32,-86.5 4697.32,-86.5 4697.32,-80.5 4703.32,-74.5 4709.32,-74.5 4709.32,-74.5 4766.32,-74.5 4766.32,-74.5 4772.32,-74.5 4778.32,-80.5 4778.32,-86.5 4778.32,-86.5 4778.32,-98.5 4778.32,-98.5 4778.32,-104.5 4772.32,-110.5 4766.32,-110.5"/>
<text text-anchor="middle" x="4737.82" y="-95.5" font-family="sans" font-size="10.00">demog</text>
<text text-anchor="middle" x="4737.82" y="-84.5" font-family="sans" font-size="10.00">sample: PARA</text>
</g>
<!-- 5&#45;&gt;55 -->
<g id="edge114" class="edge">
<title>5&#45;&gt;55</title>
<path fill="none" stroke="grey" stroke-width="2" d="M2959.08,-165.75C3164.71,-163.79 4469.48,-150.01 4688.45,-112.42"/>
<polygon fill="grey" stroke="grey" stroke-width="2" points="4689.15,-115.85 4698.33,-110.55 4687.85,-108.97 4689.15,-115.85"/>
</g>
<!-- 56 -->
<g id="node57" class="node">
<title>56</title>
<path fill="none" stroke="#56a2d8" stroke-width="2" d="M4873.32,-110.5C4873.32,-110.5 4808.32,-110.5 4808.32,-110.5 4802.32,-110.5 4796.32,-104.5 4796.32,-98.5 4796.32,-98.5 4796.32,-86.5 4796.32,-86.5 4796.32,-80.5 4802.32,-74.5 4808.32,-74.5 4808.32,-74.5 4873.32,-74.5 4873.32,-74.5 4879.32,-74.5 4885.32,-80.5 4885.32,-86.5 4885.32,-86.5 4885.32,-98.5 4885.32,-98.5 4885.32,-104.5 4879.32,-110.5 4873.32,-110.5"/>
<text text-anchor="middle" x="4840.82" y="-95.5" font-family="sans" font-size="10.00">demog</text>
<text text-anchor="middle" x="4840.82" y="-84.5" font-family="sans" font-size="10.00">sample: ADENO</text>
</g>
<!-- 5&#45;&gt;56 -->
<g id="edge115" class="edge">
<title>5&#45;&gt;56</title>
<path fill="none" stroke="grey" stroke-width="2" d="M2958.88,-165.76C3173.78,-163.75 4600.57,-149.12 4787.82,-113 4787.92,-112.98 4788.03,-112.96 4788.13,-112.94"/>
<polygon fill="grey" stroke="grey" stroke-width="2" points="4789.15,-116.29 4798.05,-110.55 4787.51,-109.49 4789.15,-116.29"/>
</g>
<!-- 57 -->
<g id="node58" class="node">
<title>57</title>
<path fill="none" stroke="#56a2d8" stroke-width="2" d="M4974.32,-110.5C4974.32,-110.5 4915.32,-110.5 4915.32,-110.5 4909.32,-110.5 4903.32,-104.5 4903.32,-98.5 4903.32,-98.5 4903.32,-86.5 4903.32,-86.5 4903.32,-80.5 4909.32,-74.5 4915.32,-74.5 4915.32,-74.5 4974.32,-74.5 4974.32,-74.5 4980.32,-74.5 4986.32,-80.5 4986.32,-86.5 4986.32,-86.5 4986.32,-98.5 4986.32,-98.5 4986.32,-104.5 4980.32,-110.5 4974.32,-110.5"/>
<text text-anchor="middle" x="4944.82" y="-95.5" font-family="sans" font-size="10.00">demog</text>
<text text-anchor="middle" x="4944.82" y="-84.5" font-family="sans" font-size="10.00">sample: BOCA</text>
</g>
<!-- 5&#45;&gt;57 -->
<g id="edge116" class="edge">
<title>5&#45;&gt;57</title>
<path fill="none" stroke="grey" stroke-width="2" d="M2959.02,-165.83C3178.14,-164.4 4652.6,-153.37 4894.55,-112.41"/>
<polygon fill="grey" stroke="grey" stroke-width="2" points="4895.32,-115.83 4904.51,-110.56 4894.04,-108.94 4895.32,-115.83"/>
</g>
<!-- 58 -->
<g id="node59" class="node">
<title>58</title>
<path fill="none" stroke="#56a2d8" stroke-width="2" d="M5075.32,-110.5C5075.32,-110.5 5016.32,-110.5 5016.32,-110.5 5010.32,-110.5 5004.32,-104.5 5004.32,-98.5 5004.32,-98.5 5004.32,-86.5 5004.32,-86.5 5004.32,-80.5 5010.32,-74.5 5016.32,-74.5 5016.32,-74.5 5075.32,-74.5 5075.32,-74.5 5081.32,-74.5 5087.32,-80.5 5087.32,-86.5 5087.32,-86.5 5087.32,-98.5 5087.32,-98.5 5087.32,-104.5 5081.32,-110.5 5075.32,-110.5"/>
<text text-anchor="middle" x="5045.82" y="-95.5" font-family="sans" font-size="10.00">demog</text>
<text text-anchor="middle" x="5045.82" y="-84.5" font-family="sans" font-size="10.00">sample: COVS</text>
</g>
<!-- 5&#45;&gt;58 -->
<g id="edge117" class="edge">
<title>5&#45;&gt;58</title>
<path fill="none" stroke="grey" stroke-width="2" d="M2958.96,-165.87C3184.28,-164.72 4742.04,-155.32 4995.41,-112.44"/>
<polygon fill="grey" stroke="grey" stroke-width="2" points="4996.31,-115.83 5005.51,-110.57 4995.04,-108.94 4996.31,-115.83"/>
</g>
<!-- 59 -->
<g id="node60" class="node">
<title>59</title>
<path fill="none" stroke="#56a2d8" stroke-width="2" d="M5189.82,-110.5C5189.82,-110.5 5117.82,-110.5 5117.82,-110.5 5111.82,-110.5 5105.82,-104.5 5105.82,-98.5 5105.82,-98.5 5105.82,-86.5 5105.82,-86.5 5105.82,-80.5 5111.82,-74.5 5117.82,-74.5 5117.82,-74.5 5189.82,-74.5 5189.82,-74.5 5195.82,-74.5 5201.82,-80.5 5201.82,-86.5 5201.82,-86.5 5201.82,-98.5 5201.82,-98.5 5201.82,-104.5 5195.82,-110.5 5189.82,-110.5"/>
<text text-anchor="middle" x="5153.82" y="-95.5" font-family="sans" font-size="10.00">demog</text>
<text text-anchor="middle" x="5153.82" y="-84.5" font-family="sans" font-size="10.00">sample: ENTERO</text>
</g>
<!-- 5&#45;&gt;59 -->
<g id="edge118" class="edge">
<title>5&#45;&gt;59</title>
<path fill="none" stroke="grey" stroke-width="2" d="M2959.15,-165.84C3194.6,-164.35 4876.6,-152.4 5096.82,-113 5097.15,-112.94 5097.49,-112.88 5097.83,-112.81"/>
<polygon fill="grey" stroke="grey" stroke-width="2" points="5098.8,-116.18 5107.78,-110.56 5097.25,-109.36 5098.8,-116.18"/>
</g>
<!-- 60 -->
<g id="node61" class="node">
<title>60</title>
<path fill="none" stroke="#56a2d8" stroke-width="2" d="M5283.32,-110.5C5283.32,-110.5 5232.32,-110.5 5232.32,-110.5 5226.32,-110.5 5220.32,-104.5 5220.32,-98.5 5220.32,-98.5 5220.32,-86.5 5220.32,-86.5 5220.32,-80.5 5226.32,-74.5 5232.32,-74.5 5232.32,-74.5 5283.32,-74.5 5283.32,-74.5 5289.32,-74.5 5295.32,-80.5 5295.32,-86.5 5295.32,-86.5 5295.32,-98.5 5295.32,-98.5 5295.32,-104.5 5289.32,-110.5 5283.32,-110.5"/>
<text text-anchor="middle" x="5257.82" y="-95.5" font-family="sans" font-size="10.00">demog</text>
<text text-anchor="middle" x="5257.82" y="-84.5" font-family="sans" font-size="10.00">sample: BAC</text>
</g>
<!-- 5&#45;&gt;60 -->
<g id="edge119" class="edge">
<title>5&#45;&gt;60</title>
<path fill="none" stroke="grey" stroke-width="2" d="M2959.07,-165.97C3198.11,-165.68 4935.02,-161.89 5210.35,-112.43"/>
<polygon fill="grey" stroke="grey" stroke-width="2" points="5211.09,-115.85 5220.24,-110.49 5209.75,-108.98 5211.09,-115.85"/>
</g>
<!-- 62 -->
<g id="node63" class="node">
<title>62</title>
<path fill="none" stroke="#61d856" stroke-width="2" d="M5399.82,-110.5C5399.82,-110.5 5325.82,-110.5 5325.82,-110.5 5319.82,-110.5 5313.82,-104.5 5313.82,-98.5 5313.82,-98.5 5313.82,-86.5 5313.82,-86.5 5313.82,-80.5 5319.82,-74.5 5325.82,-74.5 5325.82,-74.5 5399.82,-74.5 5399.82,-74.5 5405.82,-74.5 5411.82,-80.5 5411.82,-86.5 5411.82,-86.5 5411.82,-98.5 5411.82,-98.5 5411.82,-104.5 5405.82,-110.5 5399.82,-110.5"/>
<text text-anchor="middle" x="5362.82" y="-90" font-family="sans" font-size="10.00">posrate_agegroup</text>
</g>
<!-- 5&#45;&gt;62 -->
<g id="edge120" class="edge">
<title>5&#45;&gt;62</title>
<path fill="none" stroke="grey" stroke-width="2" d="M2959,-165.89C3206.25,-164.82 5062.41,-155.44 5304.82,-113 5305.27,-112.92 5305.73,-112.84 5306.19,-112.75"/>
<polygon fill="grey" stroke="grey" stroke-width="2" points="5306.96,-116.17 5315.96,-110.57 5305.44,-109.33 5306.96,-116.17"/>
</g>
<!-- 6 -->
<g id="node7" class="node">
<title>6</title>
<path fill="none" stroke="#d8a456" stroke-width="2" d="M2951.82,-257C2951.82,-257 2911.82,-257 2911.82,-257 2905.82,-257 2899.82,-251 2899.82,-245 2899.82,-245 2899.82,-233 2899.82,-233 2899.82,-227 2905.82,-221 2911.82,-221 2911.82,-221 2951.82,-221 2951.82,-221 2957.82,-221 2963.82,-227 2963.82,-233 2963.82,-233 2963.82,-245 2963.82,-245 2963.82,-251 2957.82,-257 2951.82,-257"/>
<text text-anchor="middle" x="2931.82" y="-236.5" font-family="sans" font-size="10.00">agegroups</text>
</g>
<!-- 6&#45;&gt;5 -->
<g id="edge62" class="edge">
<title>6&#45;&gt;5</title>
<path fill="none" stroke="grey" stroke-width="2" d="M2931.82,-220.7C2931.82,-212.98 2931.82,-203.71 2931.82,-195.11"/>
<polygon fill="grey" stroke="grey" stroke-width="2" points="2935.32,-195.1 2931.82,-185.1 2928.32,-195.1 2935.32,-195.1"/>
</g>
<!-- 7 -->
<g id="node8" class="node">
<title>7</title>
<path fill="none" stroke="#56b9d8" stroke-width="2" d="M2946.82,-329C2946.82,-329 2916.82,-329 2916.82,-329 2910.82,-329 2904.82,-323 2904.82,-317 2904.82,-317 2904.82,-305 2904.82,-305 2904.82,-299 2910.82,-293 2916.82,-293 2916.82,-293 2946.82,-293 2946.82,-293 2952.82,-293 2958.82,-299 2958.82,-305 2958.82,-305 2958.82,-317 2958.82,-317 2958.82,-323 2952.82,-329 2946.82,-329"/>
<text text-anchor="middle" x="2931.82" y="-308.5" font-family="sans" font-size="10.00">reshape</text>
</g>
<!-- 7&#45;&gt;6 -->
<g id="edge63" class="edge">
<title>7&#45;&gt;6</title>
<path fill="none" stroke="grey" stroke-width="2" d="M2931.82,-292.7C2931.82,-284.98 2931.82,-275.71 2931.82,-267.11"/>
<polygon fill="grey" stroke="grey" stroke-width="2" points="2935.32,-267.1 2931.82,-257.1 2928.32,-267.1 2935.32,-267.1"/>
</g>
<!-- 8&#45;&gt;0 -->
<g id="edge5" class="edge">
<title>8&#45;&gt;0</title>
<path fill="none" stroke="grey" stroke-width="2" d="M717.85,-74.29C720.85,-73.39 723.86,-72.61 726.82,-72 898.08,-36.45 2186.38,-21.78 2423.4,-19.36"/>
<polygon fill="grey" stroke="grey" stroke-width="2" points="2423.61,-22.86 2433.58,-19.26 2423.54,-15.86 2423.61,-22.86"/>
</g>
<!-- 9&#45;&gt;0 -->
<g id="edge6" class="edge">
<title>9&#45;&gt;0</title>
<path fill="none" stroke="grey" stroke-width="2" d="M815.85,-74.29C818.85,-73.4 821.86,-72.62 824.82,-72 985.87,-38.42 2194.25,-22.22 2423.38,-19.44"/>
<polygon fill="grey" stroke="grey" stroke-width="2" points="2423.58,-22.94 2433.54,-19.32 2423.5,-15.94 2423.58,-22.94"/>
</g>
<!-- 10&#45;&gt;0 -->
<g id="edge7" class="edge">
<title>10&#45;&gt;0</title>
<path fill="none" stroke="grey" stroke-width="2" d="M913.85,-74.3C916.85,-73.4 919.86,-72.62 922.82,-72 1073.72,-40.37 2203.06,-22.69 2423.55,-19.52"/>
<polygon fill="grey" stroke="grey" stroke-width="2" points="2423.7,-23.02 2433.65,-19.37 2423.6,-16.02 2423.7,-23.02"/>
</g>
<!-- 11&#45;&gt;0 -->
<g id="edge8" class="edge">
<title>11&#45;&gt;0</title>
<path fill="none" stroke="grey" stroke-width="2" d="M1011.85,-74.31C1014.85,-73.41 1017.86,-72.62 1020.82,-72 1161.56,-42.33 2211.69,-23.19 2423.61,-19.61"/>
<polygon fill="grey" stroke="grey" stroke-width="2" points="2423.67,-23.11 2433.61,-19.44 2423.56,-16.11 2423.67,-23.11"/>
</g>
<!-- 12&#45;&gt;0 -->
<g id="edge9" class="edge">
<title>12&#45;&gt;0</title>
<path fill="none" stroke="grey" stroke-width="2" d="M1109.85,-74.32C1112.85,-73.42 1115.86,-72.63 1118.82,-72 1377.93,-17.01 2234.18,-17.88 2423.53,-18.77"/>
<polygon fill="grey" stroke="grey" stroke-width="2" points="2423.53,-22.27 2433.55,-18.82 2423.57,-15.27 2423.53,-22.27"/>
</g>
<!-- 13&#45;&gt;0 -->
<g id="edge10" class="edge">
<title>13&#45;&gt;0</title>
<path fill="none" stroke="grey" stroke-width="2" d="M1203.36,-74.32C1206.19,-73.42 1209.02,-72.63 1211.82,-72 1451.19,-18.05 2242.15,-18.06 2423.53,-18.79"/>
<polygon fill="grey" stroke="grey" stroke-width="2" points="2423.61,-22.29 2433.63,-18.84 2423.65,-15.29 2423.61,-22.29"/>
</g>
<!-- 14&#45;&gt;0 -->
<g id="edge11" class="edge">
<title>14&#45;&gt;0</title>
<path fill="none" stroke="grey" stroke-width="2" d="M1296.37,-74.33C1299.19,-73.43 1302.02,-72.63 1304.82,-72 1525.02,-21.98 2249.84,-18.94 2423.29,-18.94"/>
<polygon fill="grey" stroke="grey" stroke-width="2" points="2423.44,-22.44 2433.45,-18.94 2423.45,-15.44 2423.44,-22.44"/>
</g>
<!-- 15&#45;&gt;0 -->
<g id="edge12" class="edge">
<title>15&#45;&gt;0</title>
<path fill="none" stroke="grey" stroke-width="2" d="M1389.41,-74.6C1392.55,-73.59 1395.71,-72.7 1398.82,-72 1600.15,-26.65 2259.92,-20.09 2423.74,-19.15"/>
<polygon fill="grey" stroke="grey" stroke-width="2" points="2423.83,-22.65 2433.81,-19.1 2423.79,-15.65 2423.83,-22.65"/>
</g>
<!-- 16&#45;&gt;0 -->
<g id="edge13" class="edge">
<title>16&#45;&gt;0</title>
<path fill="none" stroke="grey" stroke-width="2" d="M1481.86,-74.53C1484.85,-73.55 1487.86,-72.69 1490.82,-72 1672.92,-29.79 2266.99,-20.94 2423.01,-19.33"/>
<polygon fill="grey" stroke="grey" stroke-width="2" points="2423.51,-22.82 2433.47,-19.22 2423.44,-15.82 2423.51,-22.82"/>
</g>
<!-- 17&#45;&gt;0 -->
<g id="edge14" class="edge">
<title>17&#45;&gt;0</title>
<path fill="none" stroke="grey" stroke-width="2" d="M1573.86,-74.55C1576.85,-73.56 1579.86,-72.69 1582.82,-72 1746.34,-33.6 2277.21,-22.06 2423.3,-19.57"/>
<polygon fill="grey" stroke="grey" stroke-width="2" points="2423.59,-23.07 2433.53,-19.4 2423.48,-16.07 2423.59,-23.07"/>
</g>
<!-- 18&#45;&gt;0 -->
<g id="edge15" class="edge">
<title>18&#45;&gt;0</title>
<path fill="none" stroke="grey" stroke-width="2" d="M1665.87,-74.57C1668.86,-73.58 1671.86,-72.7 1674.82,-72 1819.73,-37.44 2287.2,-23.32 2423.31,-19.88"/>
<polygon fill="grey" stroke="grey" stroke-width="2" points="2423.71,-23.37 2433.62,-19.62 2423.54,-16.37 2423.71,-23.37"/>
</g>
<!-- 19&#45;&gt;0 -->
<g id="edge16" class="edge">
<title>19&#45;&gt;0</title>
<path fill="none" stroke="grey" stroke-width="2" d="M1765.43,-74.27C1768.24,-73.41 1771.05,-72.64 1773.82,-72 1899.22,-42.92 2299.35,-25.27 2423.63,-20.39"/>
<polygon fill="grey" stroke="grey" stroke-width="2" points="2423.92,-23.88 2433.78,-20 2423.65,-16.89 2423.92,-23.88"/>
</g>
<!-- 20&#45;&gt;0 -->
<g id="edge17" class="edge">
<title>20&#45;&gt;0</title>
<path fill="none" stroke="grey" stroke-width="2" d="M1864.44,-74.32C1867.24,-73.44 1870.05,-72.66 1872.82,-72 2076.57,-23.36 2329.75,-18.6 2423.58,-18.66"/>
<polygon fill="grey" stroke="grey" stroke-width="2" points="2423.7,-22.16 2433.71,-18.69 2423.72,-15.16 2423.7,-22.16"/>
</g>
<!-- 21&#45;&gt;0 -->
<g id="edge18" class="edge">
<title>21&#45;&gt;0</title>
<path fill="none" stroke="grey" stroke-width="2" d="M1963.45,-74.37C1966.25,-73.49 1969.06,-72.68 1971.82,-72 2136.76,-31.05 2340.8,-21.74 2423.44,-19.62"/>
<polygon fill="grey" stroke="grey" stroke-width="2" points="2423.68,-23.12 2433.6,-19.38 2423.52,-16.12 2423.68,-23.12"/>
</g>
<!-- 22&#45;&gt;0 -->
<g id="edge19" class="edge">
<title>22&#45;&gt;0</title>
<path fill="none" stroke="grey" stroke-width="2" d="M2060.36,-74.54C2063.2,-73.6 2066.03,-72.74 2068.82,-72 2196.33,-38.06 2353.25,-25.21 2423.61,-20.91"/>
<polygon fill="grey" stroke="grey" stroke-width="2" points="2423.97,-24.4 2433.74,-20.32 2423.55,-17.41 2423.97,-24.4"/>
</g>
<!-- 23&#45;&gt;0 -->
<g id="edge20" class="edge">
<title>23&#45;&gt;0</title>
<path fill="none" stroke="grey" stroke-width="2" d="M2157.4,-74.68C2160.23,-73.71 2163.05,-72.8 2165.82,-72 2256.44,-45.76 2366.68,-30.1 2423.28,-23.2"/>
<polygon fill="grey" stroke="grey" stroke-width="2" points="2424.02,-26.64 2433.54,-21.98 2423.19,-19.69 2424.02,-26.64"/>
</g>
<!-- 24&#45;&gt;0 -->
<g id="edge21" class="edge">
<title>24&#45;&gt;0</title>
<path fill="none" stroke="grey" stroke-width="2" d="M2254.49,-74.94C2257.29,-73.91 2260.09,-72.92 2262.82,-72 2318.06,-53.47 2383.64,-36.96 2423.73,-27.47"/>
<polygon fill="grey" stroke="grey" stroke-width="2" points="2424.66,-30.84 2433.6,-25.15 2423.06,-24.03 2424.66,-30.84"/>
</g>
<!-- 25&#45;&gt;0 -->
<g id="edge22" class="edge">
<title>25&#45;&gt;0</title>
<path fill="none" stroke="grey" stroke-width="2" d="M2352.87,-71.88C2375.09,-60.99 2402.53,-47.55 2424.18,-36.95"/>
<polygon fill="grey" stroke="grey" stroke-width="2" points="2425.93,-39.98 2433.37,-32.44 2422.85,-33.7 2425.93,-39.98"/>
</g>
<!-- 26&#45;&gt;0 -->
<g id="edge23" class="edge">
<title>26&#45;&gt;0</title>
<path fill="none" stroke="grey" stroke-width="2" d="M2425.2,-71.69C2430.82,-63.39 2437.41,-53.63 2443.39,-44.78"/>
<polygon fill="grey" stroke="grey" stroke-width="2" points="2446.41,-46.56 2449.11,-36.32 2440.61,-42.64 2446.41,-46.56"/>
</g>
<!-- 27&#45;&gt;0 -->
<g id="edge24" class="edge">
<title>27&#45;&gt;0</title>
<path fill="none" stroke="grey" stroke-width="2" d="M2497.15,-71.69C2491.43,-63.39 2484.7,-53.63 2478.59,-44.78"/>
<polygon fill="grey" stroke="grey" stroke-width="2" points="2481.32,-42.56 2472.76,-36.32 2475.56,-46.54 2481.32,-42.56"/>
</g>
<!-- 28&#45;&gt;0 -->
<g id="edge25" class="edge">
<title>28&#45;&gt;0</title>
<path fill="none" stroke="grey" stroke-width="2" d="M2572.41,-71.88C2549.03,-60.8 2520.05,-47.07 2497.49,-36.38"/>
<polygon fill="grey" stroke="grey" stroke-width="2" points="2498.78,-33.12 2488.25,-32 2495.79,-39.44 2498.78,-33.12"/>
</g>
<!-- 29&#45;&gt;0 -->
<g id="edge26" class="edge">
<title>29&#45;&gt;0</title>
<path fill="none" stroke="grey" stroke-width="2" d="M2676.14,-75C2672.99,-73.95 2669.86,-72.94 2666.82,-72 2608.42,-53.99 2539.45,-37.12 2497.97,-27.44"/>
<polygon fill="grey" stroke="grey" stroke-width="2" points="2498.57,-23.99 2488.04,-25.14 2496.99,-30.8 2498.57,-23.99"/>
</g>
<!-- 30&#45;&gt;0 -->
<g id="edge27" class="edge">
<title>30&#45;&gt;0</title>
<path fill="none" stroke="grey" stroke-width="2" d="M2783.22,-74.7C2780.06,-73.72 2776.9,-72.81 2773.82,-72 2675.76,-46.22 2557.01,-30.12 2497.93,-23.1"/>
<polygon fill="grey" stroke="grey" stroke-width="2" points="2498.3,-19.62 2487.96,-21.94 2497.48,-26.58 2498.3,-19.62"/>
</g>
<!-- 31&#45;&gt;0 -->
<g id="edge28" class="edge">
<title>31&#45;&gt;0</title>
<path fill="none" stroke="grey" stroke-width="2" d="M2890.05,-74.35C2887.29,-73.48 2884.52,-72.69 2881.82,-72 2742.98,-36.76 2572.18,-24.48 2498.06,-20.61"/>
<polygon fill="grey" stroke="grey" stroke-width="2" points="2498,-17.1 2487.84,-20.1 2497.65,-24.09 2498,-17.1"/>
</g>
<!-- 32&#45;&gt;0 -->
<g id="edge29" class="edge">
<title>32&#45;&gt;0</title>
<path fill="none" stroke="grey" stroke-width="2" d="M2991.07,-74.27C2988.3,-73.42 2985.53,-72.65 2982.82,-72 2804.72,-29.07 2584.29,-20.88 2497.95,-19.34"/>
<polygon fill="grey" stroke="grey" stroke-width="2" points="2497.92,-15.84 2487.86,-19.18 2497.81,-22.84 2497.92,-15.84"/>
</g>
<!-- 33&#45;&gt;0 -->
<g id="edge30" class="edge">
<title>33&#45;&gt;0</title>
<path fill="none" stroke="grey" stroke-width="2" d="M3092.08,-74.22C3089.31,-73.39 3086.54,-72.63 3083.82,-72 2866.23,-21.43 2595.89,-17.91 2498.21,-18.48"/>
<polygon fill="grey" stroke="grey" stroke-width="2" points="2497.93,-14.98 2487.96,-18.56 2497.99,-21.98 2497.93,-14.98"/>
</g>
<!-- 34&#45;&gt;0 -->
<g id="edge31" class="edge">
<title>34&#45;&gt;0</title>
<path fill="none" stroke="grey" stroke-width="2" d="M3193.09,-74.18C3190.32,-73.36 3187.54,-72.62 3184.82,-72 3051.95,-41.94 2627.22,-24.86 2498.29,-20.27"/>
<polygon fill="grey" stroke="grey" stroke-width="2" points="2498.24,-16.76 2488.13,-19.91 2498,-23.76 2498.24,-16.76"/>
</g>
<!-- 35&#45;&gt;0 -->
<g id="edge32" class="edge">
<title>35&#45;&gt;0</title>
<path fill="none" stroke="grey" stroke-width="2" d="M3294.1,-74.15C3291.32,-73.34 3288.54,-72.6 3285.82,-72 3132.52,-38.04 2638.61,-23.41 2498.3,-19.88"/>
<polygon fill="grey" stroke="grey" stroke-width="2" points="2498.15,-16.38 2488.07,-19.63 2497.98,-23.37 2498.15,-16.38"/>
</g>
<!-- 36&#45;&gt;0 -->
<g id="edge33" class="edge">
<title>36&#45;&gt;0</title>
<path fill="none" stroke="grey" stroke-width="2" d="M3395.1,-74.13C3392.32,-73.32 3389.55,-72.6 3386.82,-72 3213,-34.13 2649.44,-22.15 2498.37,-19.58"/>
<polygon fill="grey" stroke="grey" stroke-width="2" points="2498.27,-16.08 2488.21,-19.41 2498.15,-23.08 2498.27,-16.08"/>
</g>
<!-- 37&#45;&gt;0 -->
<g id="edge34" class="edge">
<title>37&#45;&gt;0</title>
<path fill="none" stroke="grey" stroke-width="2" d="M3496.55,-73.97C3493.62,-73.22 3490.69,-72.55 3487.82,-72 3292.67,-34.35 2660.21,-22.1 2498.66,-19.55"/>
<polygon fill="grey" stroke="grey" stroke-width="2" points="2498.33,-16.04 2488.28,-19.39 2498.23,-23.04 2498.33,-16.04"/>
</g>
<!-- 38&#45;&gt;0 -->
<g id="edge35" class="edge">
<title>38&#45;&gt;0</title>
<path fill="none" stroke="grey" stroke-width="2" d="M3610.56,-73.95C3607.62,-73.21 3604.69,-72.55 3601.82,-72 3383.1,-30.38 2670.21,-21 2498.35,-19.32"/>
<polygon fill="grey" stroke="grey" stroke-width="2" points="2498.3,-15.82 2488.27,-19.22 2498.24,-22.82 2498.3,-15.82"/>
</g>
<!-- 39&#45;&gt;0 -->
<g id="edge36" class="edge">
<title>39&#45;&gt;0</title>
<path fill="none" stroke="grey" stroke-width="2" d="M3724.56,-73.94C3721.62,-73.2 3718.69,-72.54 3715.82,-72 3473.38,-26.4 2679.25,-20 2497.92,-19.13"/>
<polygon fill="grey" stroke="grey" stroke-width="2" points="2497.83,-15.63 2487.82,-19.09 2497.8,-22.63 2497.83,-15.63"/>
</g>
<!-- 40&#45;&gt;0 -->
<g id="edge37" class="edge">
<title>40&#45;&gt;0</title>
<path fill="none" stroke="grey" stroke-width="2" d="M3839.22,-74.56C3836.08,-73.56 3832.92,-72.68 3829.82,-72 3565.46,-14 2689.26,-17.24 2497.93,-18.67"/>
<polygon fill="grey" stroke="grey" stroke-width="2" points="2497.79,-15.17 2487.82,-18.75 2497.85,-22.17 2497.79,-15.17"/>
</g>
<!-- 41&#45;&gt;0 -->
<g id="edge38" class="edge">
<title>41&#45;&gt;0</title>
<path fill="none" stroke="grey" stroke-width="2" d="M3932.27,-74.3C3929.45,-73.41 3926.61,-72.62 3923.82,-72 3781,-40.28 2711.71,-22.75 2497.94,-19.54"/>
<polygon fill="grey" stroke="grey" stroke-width="2" points="2497.91,-16.04 2487.86,-19.39 2497.8,-23.04 2497.91,-16.04"/>
</g>
<!-- 42&#45;&gt;0 -->
<g id="edge39" class="edge">
<title>42&#45;&gt;0</title>
<path fill="none" stroke="grey" stroke-width="2" d="M4025.27,-74.29C4022.45,-73.4 4019.61,-72.62 4016.82,-72 3864.42,-38.32 2720.44,-22.27 2498.17,-19.46"/>
<polygon fill="grey" stroke="grey" stroke-width="2" points="2498.04,-15.95 2488,-19.33 2497.95,-22.95 2498.04,-15.95"/>
</g>
<!-- 43&#45;&gt;0 -->
<g id="edge40" class="edge">
<title>43&#45;&gt;0</title>
<path fill="none" stroke="grey" stroke-width="2" d="M49.37,-148.88C48.59,-127.15 51.02,-90.3 73.82,-72 121.66,-33.59 2123.76,-20.89 2423.44,-19.2"/>
<polygon fill="grey" stroke="grey" stroke-width="2" points="2423.79,-22.7 2433.77,-19.14 2423.75,-15.7 2423.79,-22.7"/>
</g>
<!-- 43&#45;&gt;46 -->
<g id="edge103" class="edge">
<title>43&#45;&gt;46</title>
<path fill="none" stroke="grey" stroke-width="2" d="M64.8,-148.82C72.15,-139.79 81.29,-128.55 89.41,-118.57"/>
<polygon fill="grey" stroke="grey" stroke-width="2" points="92.34,-120.52 95.93,-110.56 86.91,-116.11 92.34,-120.52"/>
</g>
<!-- 44&#45;&gt;0 -->
<g id="edge41" class="edge">
<title>44&#45;&gt;0</title>
<path fill="none" stroke="grey" stroke-width="2" d="M299.87,-148.95C294.85,-127.64 290.42,-91.61 310.82,-72 350.49,-33.85 2141.81,-21.01 2423.66,-19.22"/>
<polygon fill="grey" stroke="grey" stroke-width="2" points="2423.8,-22.72 2433.78,-19.16 2423.76,-15.72 2423.8,-22.72"/>
</g>
<!-- 44&#45;&gt;47 -->
<g id="edge105" class="edge">
<title>44&#45;&gt;47</title>
<path fill="none" stroke="grey" stroke-width="2" d="M314.77,-148.82C319.84,-140.06 326.12,-129.23 331.77,-119.47"/>
<polygon fill="grey" stroke="grey" stroke-width="2" points="334.95,-120.97 336.93,-110.56 328.89,-117.46 334.95,-120.97"/>
</g>
<!-- 45&#45;&gt;0 -->
<g id="edge42" class="edge">
<title>45&#45;&gt;0</title>
<path fill="none" stroke="grey" stroke-width="2" d="M453.98,-148.78C446.86,-127.63 439.23,-92.11 458.82,-72 494.46,-35.4 2153.22,-21.32 2423.71,-19.27"/>
<polygon fill="grey" stroke="grey" stroke-width="2" points="2423.82,-22.77 2433.8,-19.19 2423.77,-15.77 2423.82,-22.77"/>
</g>
<!-- 45&#45;&gt;48 -->
<g id="edge107" class="edge">
<title>45&#45;&gt;48</title>
<path fill="none" stroke="grey" stroke-width="2" d="M468.87,-148.82C472.94,-140.15 477.96,-129.45 482.49,-119.78"/>
<polygon fill="grey" stroke="grey" stroke-width="2" points="485.74,-121.1 486.82,-110.56 479.4,-118.13 485.74,-121.1"/>
</g>
<!-- 46&#45;&gt;0 -->
<g id="edge43" class="edge">
<title>46&#45;&gt;0</title>
<path fill="none" stroke="grey" stroke-width="2" d="M137,-82.11C149.56,-78.21 164.78,-74.11 178.82,-72 409.39,-37.31 2144.79,-21.61 2423.19,-19.3"/>
<polygon fill="grey" stroke="grey" stroke-width="2" points="2423.59,-22.8 2433.56,-19.22 2423.53,-15.8 2423.59,-22.8"/>
</g>
<!-- 47&#45;&gt;0 -->
<g id="edge44" class="edge">
<title>47&#45;&gt;0</title>
<path fill="none" stroke="grey" stroke-width="2" d="M374.03,-76.65C378.52,-74.76 383.22,-73.1 387.82,-72 592.98,-22.93 2160.06,-19.29 2423.33,-19.02"/>
<polygon fill="grey" stroke="grey" stroke-width="2" points="2423.53,-22.52 2433.52,-19.01 2423.52,-15.52 2423.53,-22.52"/>
</g>
<!-- 48&#45;&gt;0 -->
<g id="edge45" class="edge">
<title>48&#45;&gt;0</title>
<path fill="none" stroke="grey" stroke-width="2" d="M522.18,-75.02C525.03,-73.82 527.93,-72.77 530.82,-72 719.93,-21.3 2171.48,-19 2423.56,-18.98"/>
<polygon fill="grey" stroke="grey" stroke-width="2" points="2423.67,-22.48 2433.67,-18.98 2423.67,-15.48 2423.67,-22.48"/>
</g>
<!-- 49&#45;&gt;0 -->
<g id="edge46" class="edge">
<title>49&#45;&gt;0</title>
<path fill="none" stroke="grey" stroke-width="2" d="M4119.33,-74.46C4116.15,-73.49 4112.95,-72.65 4109.82,-72 3947.39,-38.15 2728.2,-22.16 2498.19,-19.43"/>
<polygon fill="grey" stroke="grey" stroke-width="2" points="2498.03,-15.93 2487.99,-19.31 2497.95,-22.92 2498.03,-15.93"/>
</g>
<!-- 50&#45;&gt;0 -->
<g id="edge47" class="edge">
<title>50&#45;&gt;0</title>
<path fill="none" stroke="grey" stroke-width="2" d="M4217.33,-74.45C4214.15,-73.49 4210.95,-72.65 4207.82,-72 4035.17,-36.19 2735.93,-21.72 2498.13,-19.35"/>
<polygon fill="grey" stroke="grey" stroke-width="2" points="2497.96,-15.85 2487.93,-19.25 2497.89,-22.85 2497.96,-15.85"/>
</g>
<!-- 51&#45;&gt;0 -->
<g id="edge48" class="edge">
<title>51&#45;&gt;0</title>
<path fill="none" stroke="grey" stroke-width="2" d="M4315.23,-74.52C4312.09,-73.53 4308.93,-72.67 4305.82,-72 4123.27,-32.9 2744.23,-21.07 2498.28,-19.26"/>
<polygon fill="grey" stroke="grey" stroke-width="2" points="2498.1,-15.76 2488.07,-19.18 2498.05,-22.76 2498.1,-15.76"/>
</g>
<!-- 52&#45;&gt;0 -->
<g id="edge49" class="edge">
<title>52&#45;&gt;0</title>
<path fill="none" stroke="grey" stroke-width="2" d="M4408.79,-74.44C4405.8,-73.48 4402.78,-72.65 4399.82,-72 4207.6,-30.2 2751.12,-20.55 2498.2,-19.19"/>
<polygon fill="grey" stroke="grey" stroke-width="2" points="2498.07,-15.69 2488.05,-19.13 2498.03,-22.68 2498.07,-15.69"/>
</g>
<!-- 53&#45;&gt;0 -->
<g id="edge50" class="edge">
<title>53&#45;&gt;0</title>
<path fill="none" stroke="grey" stroke-width="2" d="M4501.51,-74.43C4498.27,-73.48 4495.01,-72.64 4491.82,-72 4289.32,-31.17 2756.82,-20.69 2497.91,-19.2"/>
<polygon fill="grey" stroke="grey" stroke-width="2" points="2497.91,-15.7 2487.89,-19.14 2497.87,-22.7 2497.91,-15.7"/>
</g>
<!-- 54&#45;&gt;0 -->
<g id="edge51" class="edge">
<title>54&#45;&gt;0</title>
<path fill="none" stroke="grey" stroke-width="2" d="M4601.15,-74.43C4598.03,-73.47 4594.9,-72.64 4591.82,-72 4379.3,-27.73 2766.36,-20.09 2498.47,-19.12"/>
<polygon fill="grey" stroke="grey" stroke-width="2" points="2498.12,-15.62 2488.11,-19.08 2498.1,-22.62 2498.12,-15.62"/>
</g>
<!-- 55&#45;&gt;0 -->
<g id="edge52" class="edge">
<title>55&#45;&gt;0</title>
<path fill="none" stroke="grey" stroke-width="2" d="M4698.33,-74.43C4695.15,-73.47 4691.96,-72.64 4688.82,-72 4465.87,-26.51 2771.47,-19.87 2498.02,-19.09"/>
<polygon fill="grey" stroke="grey" stroke-width="2" points="2497.84,-15.59 2487.83,-19.06 2497.82,-22.59 2497.84,-15.59"/>
</g>
<!-- 56&#45;&gt;0 -->
<g id="edge53" class="edge">
<title>56&#45;&gt;0</title>
<path fill="none" stroke="grey" stroke-width="2" d="M4798.05,-74.43C4794.63,-73.47 4791.19,-72.64 4787.82,-72 4553.86,-27.57 2777.84,-20.03 2497.91,-19.11"/>
<polygon fill="grey" stroke="grey" stroke-width="2" points="2497.87,-15.61 2487.86,-19.08 2497.85,-22.61 2497.87,-15.61"/>
</g>
<!-- 57&#45;&gt;0 -->
<g id="edge54" class="edge">
<title>57&#45;&gt;0</title>
<path fill="none" stroke="grey" stroke-width="2" d="M4904.51,-74.42C4901.27,-73.47 4898.01,-72.64 4894.82,-72 4650.16,-23.22 2786.65,-19.34 2498.26,-19.03"/>
<polygon fill="grey" stroke="grey" stroke-width="2" points="2497.92,-15.53 2487.92,-19.02 2497.92,-22.53 2497.92,-15.53"/>
</g>
<!-- 58&#45;&gt;0 -->
<g id="edge55" class="edge">
<title>58&#45;&gt;0</title>
<path fill="none" stroke="grey" stroke-width="2" d="M5005.79,-74.5C5002.46,-73.51 4999.11,-72.65 4995.82,-72 4740.47,-21.2 2792.15,-19.03 2497.97,-18.99"/>
<polygon fill="grey" stroke="grey" stroke-width="2" points="2497.83,-15.49 2487.83,-18.99 2497.83,-22.49 2497.83,-15.49"/>
</g>
<!-- 59&#45;&gt;0 -->
<g id="edge56" class="edge">
<title>59&#45;&gt;0</title>
<path fill="none" stroke="grey" stroke-width="2" d="M5108.09,-74.5C5104.32,-73.51 5100.52,-72.66 5096.82,-72 4829.94,-24.85 2800.96,-19.58 2498.48,-19.05"/>
<polygon fill="grey" stroke="grey" stroke-width="2" points="2498.07,-15.55 2488.06,-19.04 2498.06,-22.55 2498.07,-15.55"/>
</g>
<!-- 60&#45;&gt;0 -->
<g id="edge57" class="edge">
<title>60&#45;&gt;0</title>
<path fill="none" stroke="grey" stroke-width="2" d="M5220.24,-74.49C5217.1,-73.51 5213.93,-72.65 5210.82,-72 4933.52,-13.98 2807.19,-17.98 2498.21,-18.88"/>
<polygon fill="grey" stroke="grey" stroke-width="2" points="2497.98,-15.38 2487.99,-18.91 2498,-22.38 2497.98,-15.38"/>
</g>
<!-- 61 -->
<g id="node62" class="node">
<title>61</title>
<path fill="none" stroke="#56d8c9" stroke-width="2" d="M5507.82,-110.5C5507.82,-110.5 5441.82,-110.5 5441.82,-110.5 5435.82,-110.5 5429.82,-104.5 5429.82,-98.5 5429.82,-98.5 5429.82,-86.5 5429.82,-86.5 5429.82,-80.5 5435.82,-74.5 5441.82,-74.5 5441.82,-74.5 5507.82,-74.5 5507.82,-74.5 5513.82,-74.5 5519.82,-80.5 5519.82,-86.5 5519.82,-86.5 5519.82,-98.5 5519.82,-98.5 5519.82,-104.5 5513.82,-110.5 5507.82,-110.5"/>
<text text-anchor="middle" x="5474.82" y="-90" font-family="sans" font-size="10.00">combine_demog</text>
</g>
<!-- 61&#45;&gt;0 -->
<g id="edge58" class="edge">
<title>61&#45;&gt;0</title>
<path fill="none" stroke="grey" stroke-width="2" d="M5431.54,-74.49C5427.95,-73.5 5424.34,-72.65 5420.82,-72 5120.01,-16.57 2819.24,-18.4 2498.01,-18.93"/>
<polygon fill="grey" stroke="grey" stroke-width="2" points="2497.83,-15.43 2487.84,-18.95 2497.84,-22.43 2497.83,-15.43"/>
</g>
<!-- 62&#45;&gt;0 -->
<g id="edge59" class="edge">
<title>62&#45;&gt;0</title>
<path fill="none" stroke="grey" stroke-width="2" d="M5316.28,-74.49C5312.44,-73.51 5308.58,-72.65 5304.82,-72 5015.83,-21.95 2814.18,-19.15 2498.47,-19.01"/>
<polygon fill="grey" stroke="grey" stroke-width="2" points="2498.04,-15.51 2488.04,-19 2498.04,-22.51 2498.04,-15.51"/>
</g>
<!-- 63&#45;&gt;0 -->
<g id="edge60" class="edge">
<title>63&#45;&gt;0</title>
<path fill="none" stroke="grey" stroke-width="2" d="M182.11,-148.78C188.67,-126.58 203.51,-88.84 231.82,-72 329.89,-13.67 2139.06,-17.83 2423.36,-18.85"/>
<polygon fill="grey" stroke="grey" stroke-width="2" points="2423.55,-22.35 2433.56,-18.89 2423.57,-15.35 2423.55,-22.35"/>
</g>
</g>
</svg>
